<?xml version="1.0" encoding="UTF-8"?><svg id="a" xmlns="http://www.w3.org/2000/svg" viewBox="0 0 781.092 834.22"><defs><style>.b{fill:#9f0;}.c{fill:#fff;}.d{fill:silver;}.e{fill:#ee2160;}</style></defs><path d="M183,799.13c-3.98-46.4-1.88-72.13,1.13-85.33-.77.48-1.55.94-2.33,1.39h-.01c-.73.42-1.47.82-2.22,1.21-1.11.58-2.24,1.14-3.37,1.66-.76.34-1.52.68-2.29,1-1.19.5-2.39.96-3.6,1.4-1.06.38-2.12.73-3.19,1.06s-2.14.63-3.22.91c-.54.14-1.08.27-1.62.4-.74.17-1.49.34-2.24.49-10.61,2.15-21.54,2.04-32.04,0-.76-.15-1.51-.31-2.27-.48,0,0-.01,0-.02-.01-1.81-.4-3.6-.86-5.37-1.38-1.94-.56-3.85-1.19-5.74-1.89-1.35-.49-2.69-1.02-4.02-1.58-.44-.19-.89-.38-1.33-.58-2.59-1.15-5.11-2.42-7.56-3.81h-.01c-1.22-.7-2.43-1.42-3.61-2.17-.44-.28-.88-.57-1.32-.86-.88-.58-1.74-1.17-2.59-1.78-.53-.38-1.06-.77-1.58-1.16-1.56-1.18-3.07-2.41-4.53-3.69-1.04-.91-2.04-1.84-3.03-2.8-.98-.96-1.93-1.95-2.86-2.96-.45-.51-.91-1.02-1.36-1.54-.61-.71-1.21-1.43-1.79-2.16-.47-.6-.93-1.2-1.39-1.81-.35-.47-.68-.93-1.02-1.41-2.33-3.31-4.36-6.8-6.04-10.48-.27-.6-.53-1.21-.79-1.82-.18-.43-.35-.86-.52-1.29v-.01c-.73-1.88-1.37-3.81-1.92-5.77-.9-3.28-1.53-6.67-1.86-10.15-.44-4.76-.31-9.68.45-14.74.23-1.56.53-3.14.89-4.72.18-.79.38-1.59.59-2.39.11-.4.22-.8.33-1.2.34-1.2.72-2.41,1.14-3.63.13-.4.28-.8.42-1.21.74-2.03,1.57-4.08,2.52-6.14.84-1.84,1.77-3.68,2.79-5.54,12.92-25.95,36.62-49.82,71.1-71.59,6.37-4.03,8.71-6.06,8.75-7.61.12-5.35,3.4-20.54,6.48-30.05.85-2.61,1.49-4.73,1.91-6.37,0-.02.01-.03.01-.05.58-1.81.87-2.89.63-3.61-.01-.47-.12-.73-.32-.79-.23-.07-.47-.14-.7-.21-.6-.29-1.47-.53-2.67-.82-1.18-.37-2.36-.75-3.53-1.14-.28-.1-.56-.19-.84-.29-6.66-2.34-14.9-5.64-22.37-8.9-.11-.05-.23-.1-.35-.15-17.56-8.05-34.6-18.28-50.26-29.87-.1-.07-.21-.15-.31-.23-1.11-.83-2.21-1.67-3.3-2.51-.57-.43-1.14-.87-1.71-1.33-.75-.57-1.49-1.16-2.22-1.73-.04-.04-.09-.07-.13-.11-1.01-.8-2.02-1.61-3.01-2.42-.88-.71-1.75-1.43-2.62-2.16-.16-.12-.32-.26-.48-.4-.83-.68-1.65-1.38-2.46-2.06-3.95-3.38-7.76-6.8-11.38-10.23-.01,0-.02,0-.02-.01-.13-.13-.26-.25-.39-.37-.15-.15-.31-.3-.46-.44-.26-.26-.51-.51-.76-.75-.03-.02-.05-.04-.08-.07-.66-.63-1.31-1.26-1.95-1.9,5.8-2.62,7.6-3.07,14.18-6.49-20.53-19.99-41.85-47.65-50.52-75.53,47.84-14.1,78.06-42.25,107.58-84.18-43.1-50.02-56.23-135.6-35.59-198.21,62.43-3.92,121.8,22.96,169.86,63.1,41.26-19.92,97.19-28.79,143.33-24.97,40.67-50.81,104.33-84.7,168.43-93.43,5.73,7.58,11.11,15.88,16.08,24.74.9,1.6,1.79,3.22,2.66,4.86.88,1.65,1.75,3.32,2.6,5.01.84,1.67,1.67,3.35,2.48,5.04,3.4,7.07,6.55,14.4,9.43,21.94.53,1.37,1.05,2.75,1.56,4.14,1.1,2.99,2.16,6.02,3.18,9.08.63,1.87,1.24,3.76,1.83,5.65.89,2.85,1.75,5.72,2.57,8.6.74,2.63,1.45,5.26,2.13,7.91.13.49.26.99.38,1.48.67,2.67,1.31,5.34,1.92,8.03.7,3.08,1.35,6.18,1.96,9.29.35,1.81.69,3.61,1.02,5.42,5.49,30.73,6.54,61.94,2.04,90.01,14.34,13.64,61.25,40.33,80.6,43.1,2.3,0,2.11,1-2.37,12.1-8.93,22.46-22.78,41.76-39.04,57.66,7.61.63,17.92,1.47,24.14,2.74-35.87,54.56-88.37,96.03-151.16,131.83,4.36,3.94,16.55,22.93,17.05,26.51,1.41-1.36,2.77-2.87,4.11-4.47,2.57-3.06,5.03-6.46,7.5-9.77,14.38-16.79,30.69-32.74,48.64-46.31.09-.07.17-.13.25-.19.02-.02.04-.03.06-.05,2.57-1.9,5.17-3.76,7.81-5.57.84-.57,1.68-1.14,2.53-1.7,1.81-1.22,3.64-2.41,5.48-3.57,1.77-1.12,3.54-2.21,5.33-3.28.78-.47,1.56-.93,2.34-1.38.52-.31,1.03-.61,1.55-.9,2.84-1.63,5.71-3.2,8.6-4.7.66-.35,1.33-.69,2-1.03.86-.44,1.73-.88,2.6-1.3,2.04-1.01,4.09-1.98,6.15-2.92-6.52,2.87-12.9,6.1-19.12,9.66-.73.41-1.46.83-2.18,1.26-3,1.73-5.97,3.53-8.9,5.4,24.88-16.21,53.32-28,82.31-30.84.01-.01.02-.01.03,0,16.57-1.52,33.47-.11,50.39,4.95-30.83,81.15,1.3,140.15,7.56,217.79,38.68,269.9-582.53,192.4-581.53,178.63Z"/><path class="b" d="M776.79,398.85c-3.23-11.25-64.52-16.36-79.95-12.83-13.9,1.95-30.04,7.58-42.34,13.77,18.94-17.63,40.42-41.8,51.71-62.52,4.55-3.91-13.23-3.84-16.64-5.7,9.36-16.67,29.69-54.58,31.59-70.08-27.39-6.79-60.51-21.24-82.88-39.55,7.92-74.57-14.55-149.81-54.81-214.93-4.13-6.64-4.56-7.01-8.08-7.01-61.55,5.01-142.04,44.53-180.7,92.05-46.59-.25-94.77,4.73-132.08,20.66-3.1,1.43-3.38,1.37-7-1.48-43.83-31.37-96.85-55.62-152.32-54.66-26.43-.09-25.48-.48-29.24,12.08-19.97,66.77-7.78,144.47,31.5,200.37-29.61,38.17-55.18,60.14-105.55,74.95,1.66,19.56,24.92,61.9,42.15,78.64-2.28,1.41-14.18,4.84-10.44,7.07,18.81,24.2,39.02,40.26,65.37,57.11,58.86,35.38,52.36,7.69,45.12,51.91-116.69,61.99-126.83,206.91,24.45,198.24-1.95,22.43-.79,50.34,1.3,71.08.38,3.77,0,5.52,12.97,7.86,164.78,21.24,589.45,68.73,600.17-175.05.35-81.68-43.58-166.25-4.3-241.98ZM183.84,799.55c-3.98-46.4-1.88-72.13,1.13-85.33-17.19,10.78-38.84,13.51-58.42,9.03-8.4-1.87-16.54-5-24.02-9.24-75.99-46.1-18.52-126.21,44.01-163.02,6.37-4.03,8.71-6.06,8.75-7.61-.31-8.06,6.81-29.44,9.03-40.08-39.73-13.73-78.11-35.54-108.66-65.35-.01,0-.02,0-.02-.01-1.22-1.17-2.44-2.34-3.64-3.53,5.8-2.62,7.6-3.07,14.18-6.49-20.53-19.99-41.85-47.65-50.52-75.53,47.84-14.1,78.06-42.25,107.58-84.18-43.1-50.02-56.23-135.6-35.59-198.21,62.43-3.92,121.8,22.96,169.86,63.1,41.26-19.92,97.19-28.79,143.33-24.97,40.67-50.81,104.33-84.7,168.43-93.43,42.7,58.69,62.04,140.48,51.84,211.2,14.34,13.64,61.25,40.33,80.6,43.1,2.3,0,2.11,1-2.37,12.1-8.93,22.46-22.78,41.76-39.04,57.66,7.61.63,17.92,1.47,24.14,2.74-35.87,54.56-88.37,96.03-151.16,131.83,4.36,3.94,16.55,22.93,17.05,26.51,4.78-4.67,8.68-10.38,12.79-15.81,37.07-43.16,87.73-80.33,144.27-85.85.01-.01.02-.01.03,0,16.57-1.52,33.47-.11,50.39,4.95-30.83,81.15,1.3,140.15,7.56,217.79,38.68,269.9-582.53,192.4-581.53,178.63Z"/><path class="b" d="M409.82,326.01c-17.933-9.87-27.865-29.103-29.6-49.15-5.8,6-15.02,24.24-14.51,28.51,1.02,4.04,8.51,14.34,13.42,18.44,18.45,14.7,14.45,10,32.38,3.15-.57-.31-1.13-.62-1.69-.95ZM393.73,312.47c.26.29.47.56.7.85-.24-.28-.48-.57-.7-.85Z"/><path class="b" d="M477.5,292.44c-2.26,11.59-7.63,22.11-18.29,30.55h-16.99c2.95-2.14,5.58-4.5,7.99-7.2q.01,0,.01-.01c9.573-10.372,12.815-25.672,8.97-39.2q.01-.01,0-.01c-.01-.05-.02-.12-.05-.17q.01-.01,0-.02c-.05-.19-.1-.38-.15-.57q.01-.01,0-.02c-3.77-17.89-20.5-32.92-39.15-32.44,31.89-14.96,63.68,16.62,57.66,49.09Z"/><path class="b" d="M236.44,364.77c-57.78,37.73-91.18-73.52-24.6-78.07-25.149,19.58-12.129,65.393,16.35,74.88,9.04,3.4,8.25,2.34,8.25,3.19Z"/><path class="e" d="M409.16,408.07c-4.058,31.127-43.946,74.015-72.62,42.87,5.524-11.701,63.672-62.903,72.62-42.87Z"/><path class="c" d="M405.46,272.17c-9.06-15.08,11.72-30.19,21.65-14.15,6.3,14.1-12.37,26.04-21.65,14.15Z"/><path class="c" d="M236.66,310.95c-12.57,9.82-22.91-17.53-7.48-17.96,9.62,0,14.72,12.26,7.48,17.96Z"/><path class="c" d="M412.82,532c-2,4.72-8.69,20.69-13.3,23.91-6.71-.83-17.1-5.16-17.86-7.43-.18-.55,2.48-2.07,5.92-3.38,10.42-3.99,18.05-8.11,22.12-11.96,2.48-2.15,4.12-4.37,3.12-1.14Z"/><path class="c" d="M470.42,789.22c-85.68,6.452-173.333,10.976-258.17-5.36-5.226-27.073-5.792-56.615,2.479-83.11,2.041-7.29,3.161-7.78-3.129-5.32-8.7,2.76-13.09,3.88-14.47,3.55-1.73.04-1.83-.75,1.45-3.15h.01c10.76-9.59,31.06-27.84,38.01-44.83.48,3.31.41,27.42,1.96,30.28,7.89-11.38,14.84-31.39,18.44-47.27,4.38,5.61,18.45,14.49,24.61,17.51,4.17,1.91,5.81,3.3,6.78,5.75,18.76,44.9,88.75,71.7,137.82,78.14.55-.32-8.97-10.82-8.56-11.06v-.01c12.92,2.73,26.12,5.87,38.93,9.15,3.35,1.37,1.76-1.4-1.76-3.07-1.94-.92-3.73-2-3.98-2.41,6.32-.88,12.6-2.05,18.82-3.52l.01-.01c2.06-.5,4.12-1.02,6.16-1.6,3.51,22.12,1.62,45.09-5.41,66.34Z"/><path class="c" d="M216.08,167.56c-1.48,1.3-21.92,14.54-22.06,14.28-14.61-24.65-41.67-49.67-69.59-63.68-6.708,40.568,2.632,85.161,16.75,120.95-17.542-4.668-31.64-51.148-35.54-68.99.091.459.224.945.38,1.38-3.313-23.344-2.631-47.896-.84-71.26,2.04-9.9.31-7.26,9.99-5.28,34.18,8.11,77.48,39.85,100.91,72.6Z"/><path class="c" d="M249.12,285.79c-.49-1.862-.945-3.731-1.38-5.6-.01,0-.01-.01,0-.02-.656-2.741-1.197-5.509-1.68-8.29.02.14.04.27.06.41-1.39-7.86-2.18-15.81-1.8-23.8-2.86-2.03-5.47-5.3-5.92-8.77-.89,4.88-1.79,9.76-2.69,14.64-17.97-19.32-50.68-21.14-71.95-6.28h-.01c-21.58,30.75-45.16,66.01-69.79,87.26,29.113-8.324,46.488-35.446,68.63-54.91-2.248,2.031-4.442,4.135-6.57,6.29,5.09-4.78,10.4-9.23,16.15-12.95h.01c1.02-.67,2.05-1.31,3.1-1.92h.01c4.25-2.507,8.756-4.562,13.46-6.08-1.1.29-2.19.62-3.26.98,1.07-.38,2.16-.7,3.26-.98.01.01.02.01.02,0,16.56-4.44,33.55,3.01,46.91,12.53.01,0,.02.02.02.02,4.92,3.16,9.49,6.53,14.15,10.22-.25-.91-.49-1.83-.73-2.75ZM162.75,280.29c.1-.11.2-.2.31-.28-.101.093-.202.199-.31.28ZM177.22,270.43c2.3-1.27,4.64-2.37,7.06-3.25-2.41.9-4.76,1.99-7.06,3.25Z"/><path class="c" d="M285.51,378.04c-8.51,3.54-33.38,1.55-19.17-8.23,7.75-4.21,23.86-8.87,32.96-5.86,3.94,2.5-4.76,11.39-13.79,14.09Z"/><path class="c" d="M434.85,486.94c2.23-.57,4.43-1.24,6.6-1.97-2.24.39-4.39,1.33-6.6,1.97ZM425.88,488.76c.72-.1,1.44-.22,2.16-.34.45-.08.91-.16,1.36-.25,1.35-.25,2.69-.55,4.03-.87-1.79.4-3.52.72-5.33,1.04-.72.12-1.5.32-2.22.42Z"/><path class="c" d="M464.57,333.71c-24.83-.12-51.7-.44-73.01,14.12,0,0-.01,0-.01.01-.85.7-1.72,1.17-2.68,1.07.07.02.14.03.2.04-1.45-.17-2.76-1.23-4.02-1.98h-.01c-20.87-14.82-47.87-23.41-73.23-16.65,13.17,3.23,28.06,12.76,32.9,23.26-39.82-26.51-110.05-8.13-118.93,42.45-.76.32-1.48-.23-2.02-.73,0-.01-.01-.01-.01-.01-1.75-1.9-2.33-4.52-3.46-6.78l-.01-.01c0-.01-.01-.02-.01-.04-.15-.29-.38-.85-.53-1.18-5.01,1.2-8.79,3.59-11.45,6.8,0,.01-.01.01-.01.02-.87,1.04-1.62,2.17-2.24,3.37-.01.01-.01.02-.02.03-.3.56-.57,1.13-.81,1.71-.63,2.09-1.09,4.25-1.38,6.42-.78,5.67-.49,11.52.83,17.09,3.2,11.5,9.34,21.85,19.55,27.67.69-.43,1.4-.85,2.11-1.22.01-.02.01-.03.02-.01h.01c.56-.34,1.18-.63,1.77-.94,1.15-.56,2.34-1.13,3.54-1.58,19.76-7.86,42.96-2.91,60.94,8.14,3.63,2.26,7.02,4.76,10.12,7.49.01,0,.01.01.01.01.65.57,1.38,1.07,2.13,1.47-.09-.07-.18-.14-.27-.2,4.41.65,8.46,1.41,12.22,2.31,8.38,1.33,16.28,4.67,23.06,9.64,0,.01.01.01.01.01,9.89,6.63,17.8,16.17,26.72,30.17,3.39,4.71,8.72,6.85,14.71,5.24,6.86-1.39,13.43-3.87,19.91-6.46-2.5,1.08-5.05,2.04-7.6,3,5.94-2.11,11.74-4.57,17.43-7.26-2.43,1.08-4.87,2.18-7.32,3.21,12.8-5.45,25.01-13,37.76-18.45-.01,0-.02.01-.04.01-2.17.73-4.37,1.4-6.6,1.97-.36.1-.71.19-1.07.28-.11.02-.23.05-.35.08-1.34.32-2.68.62-4.03.87-.45.09-.91.17-1.36.25-.72.12-1.44.24-2.16.34-2.93.61-5.85,1.15-8.79,1.65,52.66-30.05,117.14-110.92,47.48-156.7ZM433.08,387.19c-4.7,29.06-18.41,58.22-42.08,76.48h-.01c-5.7,4.23-12.07,7.61-18.94,9.44,0,0,0,.01-.01.01v-.01c-4.05,1.08-8.21,1.63-12.44,1.51q-.01.01-.02,0c-.01.01-.02.01-.03,0-19.48,1.22-44.38-22.11-55.79-43.8.01.04.03.07.05.11-.45-.81-.87-1.64-1.25-2.48.05.11.11.22.17.33-1.89-4.08-2.56-7.27-7.04-7.36-11.29-.82-11.53-11.44-17.77-11.42-5.49,0-14.63-2.05-20.25-4.54-66.6-38.24,72.5-79.77,72.66-34.06-.94,15.27-21.1,29.17-35.03,36.21,30.47,24.58,108.39-19.91,121.04-46.65-2.85-2.65-24.59-.5-10.05-6.19,13.56-6.23,31.35-7.97,44.53-1.93,6.76,3.73,19.57,11.34,7.27,9.98-5.13-.26-17.05.02-23.47.18.41,7.78-.14,15.95-1.54,24.19Z"/><path class="c" d="M596.32,336.08c-1.99,2.89,42.75,3.49,47.99,3.82-5.58,11.94-45.39,46.54-60.72,58.49,10.67-15.03,21.35-30.06,32.02-45.09-33.14,8.31-68.8,6.28-100.78-5.75,23.54,1.73,47.65-6.04,65.74-21.19-5.35,1.55-10.9,2.4-16.47,2.49-.02.01-.03.01-.05,0-.01.01-.03.01-.04,0-.87.02-1.75.01-2.62-.01-.96-.02-1.92-.06-2.87-.13-.49-.03-.97-.07-1.45-.11-.96-.09-1.91-.2-2.86-.32-.95-.13-1.9-.28-2.85-.45-.94-.17-1.89-.37-2.82-.58-2.81-.63-5.58-1.46-8.28-2.46l-.01-.01c29.22-10.14,57.39-26.86,76.87-51.21-65.47-27.14-139.76-92.82-209.43-54.58-19.53,9.68-72.95,68.64-86.18,72.22-7.27,2.69-15.41,2.35-22.74.01h-.01c-2.24-.73-4.48-1.63-6.58-2.72v-.01c-.17-.06-.34-.19-.51-.27-.01,0-.02,0-.02-.01-.07-.03-.13-.06-.19-.11v-.01c-1.29-.79-2.67-1.54-3.9-2.38h-.01c-11.26-23.19-5.98-53.6,12.88-71.31-1.71,15.32,2.36,31.22,11.21,43.84,32.51-70.82,123.49-103.71,193.76-70.03,53.86,25.9,97.59,83.25,161.09,85.84-10.61,25.03-44.95,52.11-70.17,62.03Z"/><path class="c" d="M557.14,37.09c-17.56,6.38-31.81,13.87-45.19,22.79h-.01c-.03.02-.05.04-.08.06,0,0-.01,0-.01.01-9.916,7.22-18.776,15.843-26.48,25.38-.01,0-.01.01-.01.01-16.945,21.088-28.216,46.343-34.67,72.51,7.093.73,14.016,2.718,21.16,2.98,11.88-22.33,24.69-44.4,41.1-63.76v-.01c5.94-7,12.35-13.64,19.27-19.68,0-.01.01-.01.01-.01,1.74-1.52,3.52-3.01,5.32-4.46.01,0,.02-.01.02-.02,2.99-2.37,6.06-4.64,9.22-6.79,19.58,44.84,35.97,97.5,36.05,145.4,27.97-39.97-.08-128.32-25.7-174.41ZM473.47,157.67c.02-.04.04-.07.05-.11h.01c-.02.04-.04.07-.06.11ZM473.86,156.92c-.01.03-.02.05-.04.07.055-.124.133-.249.19-.37-.05.1-.1.2-.15.3Z"/><path class="c" d="M189.99,477.55c-25.99-1.81-51.93-19.5-73.04-31.42-.01,0-.01-.01-.02-.01-8.58-6.72-18.37-12.58-26.74-19.53,0-.01-.01-.02-.02-.01-1.03-.91-1.46-2.47-.11-3.3h.01c4.42-2.58,9.89-3.55,14.85-5.75.04,0,.07-.03.11-.04,2.89-1.15,5.73-2.39,8.56-3.74-26.35-6.08-48.3-20.94-63.06-46.17-5.07-8.61-4.28-7.65-1.42-8.55,2.23-.76,18.34-5.76,23.21-7.44,6.26,9.42,14.67,17.29,24.14,23.42h.01c3.44,2.24,6.99,4.28,10.64,6.12-1.56-.79-3.1-1.62-4.61-2.49,14.46,8.01,30.63,12.73,46.9,15.33-5.95,2.63-10.18,4.15-16.03,7.11-.01.01-.02.01-.03.01-.58.29-1.17.6-1.79.93,10.9.88,22.15,1.78,33.04,2.66-12.79,12.51-30.1,20.88-47.88,22.89,19.85,22.19,45.36,39.61,73.28,49.98Z"/><path class="d" d="M738.3,627.67c-3.83,23.62-11.12,48.2-25.55,67.52-23.41-49.96-65.37-73.83-116.48-75.19-4.58,0-4.64-.05-5.88-4.25-3.11-10.55-11.68-28.58-19.22-40.75,21.113-9.253,44.801-12.021,67.59-9.03,25.31,3.3,49.79,13.57,69.59,29.71v.01c10.866,8.358,24.133,20.215,29.95,31.98Z"/><path class="d" d="M188.01,186.49l-28.34,27.4c-2.59-2.62-7.79-7.89-10.37-10.5,3.09.17,17.91-.39,18.73-1.27-5.89-4.51-10.37-10.57-14.15-16.88-.01,0-.01-.01-.01-.01-1.1-1.83-2.17-3.71-3.14-5.61h-.01c-1.73-3.75-4-7.47-4.64-11.61,12.37-1.55,31.65,11.77,41.93,18.48Z"/><path class="d" d="M284.84,471.97c-2.41.08-14.15,4.97-18.2,6.62-8.1-8.14-18.2-13.83-29.53-17.28,15.35-8.27,32.5-5.38,44.94,6.2,3.84,3.53,4.39,4.42,2.79,4.46Z"/><path class="d" d="M246.48,497.27c-14.7-15.6-33.41-11-50.92-.78,11.83-15.88,30.07-30.46,50.57-22.49,18.24,10.67,12.11,11.23.35,23.27Z"/><path class="d" d="M592.21,710.39c-2.04-3.46-4.18-6.89-6.36-10.27-.01,0-.01-.01-.01-.01-.03-.04-.04-.07-.07-.11,0,0,0-.01-.01-.01-3.17-4.86-5.83-8.86-9.02-12.74,2.52,22.26,5,44.72,3.47,67.15-1.1,25.51-2.06,20.39-15.47,23.23-31.12,5-62.84,8.75-94.32,11.59,7.03-21.25,8.92-44.22,5.41-66.34,15.23-4.28,30.14-10.84,42.26-21.18h.01q.01-.01.02-.01c2.77-2.37,5.41-4.92,7.81-7.67h.01c.42-.48.83-.98,1.25-1.47v-.01c.88-1.02,1.67-2.11,2.49-3.17,2.3.37,14.14,13.07,15.52,13.62,16.57-20.71,19.47-62.08,12.88-90.49,8.92,7.2,17.25,23.86,24.59,44.1,3.89,9.08,19.05,72.76,9.54,53.79Z"/><path class="d" d="M672.47,736.37c-14.87,10.71-32.21,20.65-50.04,25.82,1.94-24.45-.11-49.46-7.79-72.81,0-2.29-7.57-16.14-4.88-15.3v-.01c26.43,4.14,54.63,26.18,71.03,48.68,3.36,5.11,3.53,4.83-8.32,13.62Z"/><path class="d" d="M224.21,450.39c-10.04,10.22-23.68,15.49-33.19,25.98q-.01,0-.01.01c-.35.38-.68.77-1.02,1.17-27.92-10.37-53.43-27.79-73.28-49.98,17.78-2.01,35.09-10.38,47.88-22.89-10.89-.88-22.14-1.78-33.04-2.66.61-.29,1.21-.6,1.79-.93.01,0,.02,0,.03-.01,5.85-2.96,10.08-4.48,16.03-7.11,5.34.77,8.88.4,14.47,1.67,14.15,1.06,30.23.65,44.42-1.56,0,.01-.01.01-.01.02-.87,1.04-1.62,2.17-2.24,3.37-.01.01-.01.02-.02.03-.34.53-.62,1.06-.79,1.61q0,.01-.01.02c0,.03-.01.05-.01.08-.63,2.09-1.09,4.25-1.38,6.42-.78,5.67-.49,11.52.83,17.09,3.2,11.5,9.34,21.85,19.55,27.67Z"/><path class="d" d="M212.14,555.01c2.58.01,5.26.38,5.96.82,12.11,29.03-3.74,63.23-25.84,83.3,6.1-.77,13.07-2.17,19-3.82-28.756,43.039-90.247,38.293-38.65,43.39-87.23,23.11-86.55-91.79-17.33-110.22-.04.02-.08.04-.12.06,4.03-1.7,5.69-2.5,8.04-3.17v-.01c3.554.106,3.106,4.492,4.24,7.08,1.849,5.311,5.334,9.892,9.04,14.08,0,0,0,.01.01.01,2.13,2.39,2.4,2.03,1.69-1.04-6.897-20.781-4.99-46.149,6.65-65.14v-.01c3.92-6.24,8.88-11.75,14.98-15.84,57.99-28.62,42.14,34.49,7.83,49.06-2.79.06,3.57,1.43,4.5,1.45Z"/><path class="d" d="M534.58,606.82c-22.278,87.876-162.186,122.855-212.56,41.91,6.45,2.74,46.76,2.12,47.27.75-29.15-5.88-57.86-26.14-74.5-49.28.79,7.18,9.68,22.82,12.28,29.39-.65.65-10.91-7.21-16.76-12.84-10.34-9.95-18.5-23.14-23.62-38.18-3.58-10.52-3.51-10.69,3.39-8.39,29.18,10.27,0-8.34-7.39-17.94-38.716-58.217,26.579-56.138,45.18-9.998,3.79,8.388.25-10.552-1.99-16.202-6.22-17.13-22.79-29.02-39.67-29.54,22.43-21.68,46.34,1.34,60.91,24.09,1.15,1.71,1.22,1.59.67-1.08-3.23-15.32-13.37-29.78-27.09-37.14-3.99-2.08,11.23-4.48,12.07-4.37v.01c49.47,12.16,33.41,70.98,69.17,89.94,11.35,4.1,79.37,17.79,91.4,25.29-9.95-21.75-34.51-30.69-56-36.71,7.9-19.58,37.85-43.29,53-47.73,1.28-1.29-23.45-.24-22.68-.46,68.37-59.42,102.97,44.7,86.92,98.48Z"/><path class="d" d="M719.5,538.77c-41.86-33.75-106.51-34.46-152.16-7.19,0,0,0-.01.01-.02,12.28-70.78,98-90.35,151.51-51.43,1.66,15.28,6.27,55.78,9.5,63.62,1.25,3.13-8.23-4.49-8.86-4.98Z"/><path class="d" d="M666.49,274.05c-63.5-2.59-107.23-59.94-161.09-85.84-70.27-33.68-161.25-.79-193.76,70.03-8.85-12.62-12.92-28.52-11.21-43.84-18.86,17.71-24.14,48.12-12.88,71.31-6.227-4.323-11.842-9.517-16.7-15.34v-.01c-.72-.84-1.43-1.69-2.11-2.56v-.01h-.01c-8.274-10.584-13.269-23.205-18.36-35.53h-.01v-.02h-.01c.003-.011-.008-.022-.01-.04l-.01-.01v-.01c-.825-1.171-1.107-3.645-2.72-2.98v.01c-.85,1.32-1.22,3.6-1.56,5.51v.01h-.01v.05h-.01v.02h-.01c-.004.016.01.052-.01.05-.011.026.005.051,0,.08v.01l-.01.01c-.877,4.47-1.469,8.99-1.68,13.54-2.86-2.03-5.47-5.3-5.92-8.77-.89,4.88-1.79,9.76-2.69,14.64-17.97-19.32-50.68-21.14-71.95-6.28,10.144-14.773,21.797-28.55,34.71-40.99h.01c.14-.142.276-.289.43-.42,0,0,0-.01.01-.01,1.703-1.654,3.427-3.286,5.18-4.88,0,0,0-.01.01-.01l.01-.01c.656-.624,1.351-1.245,2.03-1.86v-.01c2.434-2.184,4.912-4.322,7.42-6.43q.01,0,.01-.01c12.241-10.089,25.542-18.931,39.67-26.16.01-.02.02-.03.03-.02,4.364-2.259,8.802-4.322,13.31-6.27l.01.02h.01c-1.13,6.7-1.46,19.27-.13,27.19,4.96-11.17,13.15-23.71,20.97-34,29.81-10.96,64.13-18.67,92.88-21.24-2.46,6.64-17.95,21.31-20.98,26.85,19.01-4.25,44.24-11.44,62.92-12.05,11.87-14.86,25.35-29.49,39.02-44.12l-1.02,1.12c13.166-13.721,26.929-26.999,42.26-38.29.01-.02.01-.03.02-.03,3.049-2.247,6.136-4.42,9.3-6.5-9.916,7.22-18.776,15.843-26.48,25.38-.01,0-.01.01-.01.01-16.945,21.088-28.216,46.343-34.67,72.51,7.094.722,14.006,2.772,21.15,2.98v.02c0-.01.01-.01.01-.02,1.31.07,2.64-.08,4-.4-.37.07-.74.13-1.12.18,5.528-.869,10.626-4.409,15.43-7.45l-.59.35c14.38-8.87,29.69-16.25,45.38-22.51.01,12.67-7.64,28.59-19.11,37.13,4.1-.39,25.02-4.76,29.23-4.73.54,5.06-7.95,22.54-13.75,27.37,41.85,29.49,87.27,63.56,135.17,83.28Z"/><path class="d" d="M615.61,353.3c-10.67,15.03-21.35,30.06-32.02,45.09,0,0,0,.01-.01.01-6.16,5.17-12.46,10.22-18.84,15.1-.01.02-.02.02-.03.02q-.01.02-.02.01c-30.38,23.34-63.21,43.41-97.63,60.17-8.31,4.21-16.75,8.3-25.57,11.26-.01,0-.02.01-.04.01-2.17.73-4.37,1.4-6.6,1.97-.36.1-.71.19-1.07.28-.11.02-.23.05-.35.08-1.34.3-2.68.6-4.03.87-.45.09-.91.17-1.36.25-.72.12-1.44.24-2.16.34-2.93.61-5.85,1.15-8.79,1.65,52.66-30.05,117.14-110.92,47.48-156.7,25.69.83,51.2-.27,75.69-8.92,2.7,1,5.47,1.83,8.28,2.46.93.22,1.87.41,2.82.58s1.9.32,2.85.45c.95.13,1.91.23,2.86.32.48.04.96.08,1.45.11.96.07,1.91.11,2.87.13.87.02,1.75.03,2.62.01.01.01.03.01.04,0,.02.01.03.01.05,0,5.57-.09,11.12-.94,16.47-2.49-18.09,15.15-42.2,22.92-65.74,21.19,31.98,12.03,67.64,14.06,100.78,5.75Z"/></svg>