<?xml version="1.0" encoding="UTF-8"?><svg id="a" xmlns="http://www.w3.org/2000/svg" viewBox="0 0 781.27 833.49"><defs><style>.b{fill:#9f0;}.c{fill:#fff;}.d{fill:silver;}.e{fill:#ee2160;}</style></defs><path class="c" d="M285.65,378.04c-8.51,3.54-33.38,1.55-19.17-8.23,7.75-4.21,23.86-8.87,32.96-5.86,3.94,2.5-4.76,11.39-13.79,14.09Z"/><path class="c" d="M596.46,336.08c-1.99,2.89,42.75,3.49,47.99,3.82-5.58,11.94-45.39,46.54-60.72,58.49,10.67-15.03,21.35-30.06,32.02-45.09-33.14,8.31-68.8,6.28-100.78-5.75,23.54,1.73,47.65-6.04,65.74-21.19-13.14,3.85-27.51,3.22-40.33-1.58,30.4-10.7,60.75-29.83,76.88-51.21-64.27-26.16-137.9-91.95-206.3-55.68-13.88,1.97-74.57,69.2-87.61,72.63-10.13,4.8-24.72,2.39-33.4-3.44-.76-.43-1.51-.88-2.24-1.34-11.28-23.19-6.01-53.62,12.86-71.34-1.71,15.32,2.36,31.22,11.21,43.84,32.51-70.82,123.49-103.71,193.76-70.03,52.88,24.28,95.11,83.84,156.79,83.78l4.3,2.06c-10.61,25.03-44.95,52.11-70.17,62.03Z"/><path class="c" d="M249.99,288.54c-39.26-29.1-65.09-37.86-108.64,12.99-23.91,25.53-31.45,32.18-47.25,33.81,24.63-21.25,48.21-56.51,69.79-87.26h.01c21.27-14.86,53.98-13.04,71.95,6.28.9-4.88,1.8-9.76,2.69-14.64.45,3.47,2.51,6.65,5.36,8.67-.69,11.95,1.83,26.73,6.09,40.15Z"/><path class="c" d="M190.13,477.55c-.13.23-.24.46-.32.68-.81,1.53-2.38,1.17-16.13-3.68-16.89-5.96-40.26-17.55-55.75-27.65-40.38-30.57-35.26-18.26-4.2-33.15-26.35-6.08-48.3-20.94-63.06-46.17-5.07-8.61-4.28-7.65-1.42-8.55,2.23-.76,18.34-5.76,23.21-7.44,16.23,24.51,46.18,37.55,77.09,42.38-5.96,2.69-11.91,5.37-17.86,8.05,10.9.88,22.15,1.78,33.04,2.66-12.79,12.51-30.1,20.88-47.88,22.89,19.85,22.19,45.37,39.61,73.28,49.98Z"/><path class="c" d="M216.22,167.56c-1.48,1.3-21.92,14.54-22.06,14.28-14.61-24.65-41.67-49.67-69.59-63.68-2.77,11.99-1.75,48.45.29,63.33,3.27,19.93,9.29,40.11,15.73,52.73,1.67,3.28,1.81,4.2.73,4.89-12.37,1.04-32.62-49.56-35.06-67.36-3.1-7.08-2.81-62.88-.94-71.51,2.04-9.9.31-7.26,9.99-5.28,34.18,8.11,77.48,39.85,100.91,72.6Z"/><path class="c" d="M582.98,211.5c-.08-47.9-16.47-100.56-36.05-145.4-28.85,18.21-56.76,58.85-75.07,94.97-7.11-.88-13.93-2.33-21.03-3.22,7.8-32.45,23.98-62.85,46.5-87.48h.01c17.95-13.59,35.82-24.54,59.94-33.28,25.62,46.09,53.67,134.44,25.7,174.41Z"/><path class="c" d="M405.6,272.17c-9.06-15.08,11.72-30.19,21.65-14.15,6.3,14.1-12.37,26.04-21.65,14.15Z"/><path class="c" d="M236.8,310.95c-12.57,9.82-22.91-17.53-7.48-17.96,9.62,0,14.72,12.26,7.48,17.96Z"/><path class="c" d="M464.71,333.71c-28.35-.17-53.39.11-73.64,14.55-1.69,1.31-2.5,1.02-8.46-2.98-20.59-14.08-46.47-21.32-70.66-14.96,13.17,3.23,28.06,12.76,32.9,23.26-37.82-25.87-106.75-8.38-117.45,36.75-.38,4.42-1.13,6-2.02,6-1.87,0-4.36-6.84-5.5-9.05-.88-.03-11.49,4.94-12.57,6.65-.29.05-.57.09-.86.13-8.88,19.52-.74,45.58,17.9,56.33,13.14-9.13,35.13-9.18,51.31-3.66,9.66,3.37,19.94,9.12,26.68,14.92,3.48,3,5.1,3.74,7.7,3.52,24.04.81,45.26,19.8,58.6,43.78,6.33,10.65,53.24-13.49,66.79-20.86,1.78-.75,3.58-1.53,5.41-2.33l-23.61,4.65c18.55-13.23,37.3-26.64,52.15-43.83,30.3-30.54,37.37-91.23-4.67-112.87ZM458.23,362.82c-5.13-.26-17.05.02-23.47.18,1.75,54.43-43.5,143.21-100.04,102.29-11.77-7.53-27.75-26.32-32.83-38.6-1.75-4.25-2.27-4.7-6.06-5.27-11.29-.82-11.53-11.44-17.77-11.42-5.49,0-14.63-2.05-20.25-4.54-66.6-38.24,72.5-79.77,72.66-34.06-.94,15.27-21.1,29.17-35.03,36.21,30.47,24.58,108.39-19.91,121.04-46.65-2.85-2.65-24.59-.5-10.05-6.19,13.56-6.23,31.35-7.97,44.53-1.93,6.76,3.73,19.57,11.34,7.27,9.98Z"/><path class="c" d="M412.96,532c-2,4.72-8.69,20.69-13.3,23.91-6.71-.83-17.1-5.16-17.86-7.43-.18-.55,2.48-2.07,5.92-3.38,10.42-3.99,18.05-8.11,22.12-11.96,2.48-2.15,4.12-4.37,3.12-1.14Z"/><path class="c" d="M470.56,789.22c-75.83,6.76-158.27,8.36-222.7.42-6.23-1.31-32-3.73-35.47-5.78-1.85-2.99-3.42-21.13-3.4-39.36.02-21.23,1.13-29.53,5.88-43.75,2.04-7.29,3.16-7.78-3.13-5.32-6.3,1.63-23.63,7.5-11.39-.74,13.1-10.05,30.3-30.94,36.39-43.69.48,3.31.41,27.42,1.96,30.28,7.89-11.38,14.84-31.39,18.44-47.27,4.38,5.61,18.45,14.49,24.61,17.51,4.17,1.91,5.81,3.3,6.78,5.75,18.76,44.9,88.75,71.7,137.82,78.14.55-.32-8.97-10.82-8.56-11.06h0s.01-.01.01-.01c3.51.69,11.45,2.49,19.41,4.37,7.97,1.87,15.94,3.82,19.51,4.78,3.35,1.37,1.76-1.4-1.76-3.07-1.94-.92-3.73-2-3.98-2.41,8.42-1.18,16.84-2.84,24.99-5.13,3.51,22.12,1.62,45.09-5.41,66.34Z"/><path class="e" d="M409.43,407.46c0,5.15-4.35,14.23-6.98,19.94-8,15.39-17.54,26.14-27.51,31.01-11.41,6.94-32.95,2.13-38.26-7.47.77-2.15,11.77-14.45,17.29-19.33,20.98-18,38.45-28.47,52.82-28,1.9.28,2.64,1.73,2.64,3.85Z"/><path class="d" d="M224.35,450.39c-1.68,1.16-3.21,2.47-4.57,3.94-5.75,5.78-26.05,16.75-29.65,23.22-27.91-10.37-53.43-27.79-73.28-49.98,17.78-2.01,35.09-10.38,47.88-22.89-10.89-.88-22.14-1.78-33.04-2.66,5.95-2.68,11.9-5.36,17.86-8.05,19.68,3.08,39.74,2.83,56.9.09-8.88,19.52-.74,45.58,17.9,56.33Z"/><path class="d" d="M188.15,186.49l-28.34,27.4c-2.59-2.62-7.79-7.89-10.37-10.5,3.09.17,17.91-.39,18.73-1.27l-2.28-1.9s-.08-.09-.09-.1c-6.98-4.79-19.58-27.31-19.58-32.11,0-.46.12-.76.38-.86,8.19-.27,31.68,11.43,41.55,19.34Z"/><path class="d" d="M662.33,271.99c-61.68.06-103.91-59.5-156.79-83.78-70.27-33.68-161.25-.79-193.76,70.03-8.85-12.62-12.92-28.52-11.21-43.84-18.87,17.72-24.14,48.15-12.86,71.34-38.2-23.84-37.39-80.77-41.83-48.69-1.09,3.31-1.73,7.16-1.98,11.34-2.85-2.02-4.91-5.2-5.36-8.67-.89,4.88-1.79,9.76-2.69,14.64-17.97-19.32-50.68-21.14-71.95-6.28,4.46-6.36,8.84-12.52,13.13-18.33,28.03-31.48,53.45-53.37,89.7-68.75v.02h.02c-1.13,6.7-1.46,19.27-.13,27.19,4.96-11.17,13.15-23.71,20.97-34,29.81-10.96,64.13-18.67,92.88-21.24-2.46,6.64-17.95,21.31-20.98,26.85,19.01-4.25,44.24-11.44,62.92-12.05,2.36-5.3,50.61-56.58,55.8-62.2,6.56-5.4,12.84-10.46,19.12-15.2-22.52,24.63-38.7,55.03-46.5,87.48,7.1.89,13.92,2.34,21.03,3.22,4.43.72,7.15-1.43,10.58-3.41,9.84-5.92,21.86-12.74,28.19-16.01,5.97-3.06,23.34-10.27,24.46-10.65,0,12.67-7.64,28.59-19.11,37.13,4.1-.39,25.02-4.76,29.23-4.73.54,5.06-7.95,22.54-13.75,27.37,20.72,12.12,70.33,52.17,86.42,59.92l44.45,21.3Z"/><path class="d" d="M615.75,353.3c-10.67,15.03-21.35,30.06-32.02,45.09,0,0,0,.01,0,.01-.37.29-.73.57-1.07.83-37.29,32.61-95.79,66.43-141.81,86.53l-23.61,4.65c18.55-13.23,37.3-26.64,52.15-43.83,30.3-30.54,37.37-91.23-4.67-112.87,14.3.08,29.44.29,45.24-1.16,9.78-1.46,20.11-4.12,30.43-7.77,12.82,4.8,27.19,5.43,40.33,1.58-18.09,15.15-42.2,22.92-65.74,21.19,31.98,12.03,67.64,14.06,100.78,5.75Z"/><path class="d" d="M284.98,471.97c-2.41.08-14.15,4.97-18.2,6.62-8.1-8.14-18.2-13.83-29.53-17.28,15.35-8.27,32.5-5.38,44.94,6.2,3.84,3.53,4.39,4.42,2.79,4.46Z"/><path class="d" d="M246.62,497.27c-14.7-15.6-33.41-11-50.92-.78,11.83-15.88,30.07-30.46,50.57-22.49,18.24,10.67,12.11,11.23.35,23.27Z"/><path class="d" d="M192.4,639.13c6.1-.77,13.07-2.17,19-3.82-7.63,9.77-19.66,21.13-29.72,27.4-9.3,5.8-22.46,10.4-27.32,11.27-13.53,2.17,12.51,3.96,14.46,4.02,6.16,0,5.6.71-2,2.53-80.17,13.69-81.44-88.57-12.38-111.62,10.24-4.42,11.04-4.58,11.04-2.24,0,3.15,7.08,16.01,10.69,19.42,2.63,2.48,3.41,2.86,2.87,1.41-12.99-34.57,1.53-88.44,42.86-89.99h.17c38.78,0,2.45,51.79-14.29,56.05-2.79.06,3.57,1.43,4.5,1.45,2.58.01,5.26.38,5.96.82,1.67,1.06,4.24,14.73,4.24,22.57.31,22.65-13.6,45.43-30.08,60.73Z"/><path class="d" d="M504.86,656.91c-52.52,47.31-141.17,55.61-182.7-8.18,6.45,2.74,46.76,2.12,47.27.75-25.42-5.37-44.8-18.35-60.64-33.52-9.12-8.62-11.55-12.14-13.86-15.76-.73.73,4.9,14.78,9.11,22.73,1.87,3.54,3.3,6.54,3.17,6.66-.65.65-10.91-7.21-16.76-12.84-10.34-9.95-18.5-23.14-23.62-38.18-3.58-10.52-3.51-10.69,3.39-8.39,29.18,10.27,0-8.34-7.39-17.94-16.26-21.88-18.78-55.61,13.65-43.33,10.99,5.89,26.82,20.48,31.53,33.33,3.79,8.39.25-10.55-1.99-16.2-6.22-17.13-22.79-29.02-39.67-29.54,22.43-21.68,46.34,1.34,60.91,24.09,1.15,1.71,1.22,1.59.67-1.08-3.23-15.32-13.37-29.78-27.09-37.14-3.99-2.08,11.23-4.48,12.07-4.37h0c25.75,7.06,37.22,29.87,47.25,61.91,5.04,16.61,10.69,23.84,21.92,28.04,11.35,4.1,79.37,17.79,91.4,25.29-6.39-15.04-26.67-29.73-46.21-33.44-5.39-1.21-9.79-2.68-9.79-3.27,7.9-19.58,37.85-43.29,53-47.73,1.28-1.29-23.45-.24-22.68-.46,42.71-36.21,74.96-13.37,86.86,35.47,9.69,43.78,2.94,81.16-29.8,113.1Z"/><path class="d" d="M592.35,710.39c-1.71-3.24-5.2-8.75-7.75-12.25-6.8-9.32-7.16-11.45-7.72-10.89-.22.23.3,5.1,1.16,10.83,2.35,15.6,3.32,39.32,2.31,56.32-1.29,21.58-.93,20.79-9.94,22.33-30.13,5-64.26,9.31-99.85,12.49,7.03-21.25,8.92-44.22,5.41-66.34,21.5-6.02,41.13-16.36,53.85-33.51,2.3.37,14.14,13.07,15.52,13.62,16.57-20.71,19.47-62.08,12.88-90.49,8.92,7.2,17.25,23.86,24.59,44.1,3.89,9.08,19.05,72.76,9.54,53.79Z"/><path class="d" d="M672.61,736.37c-14.87,10.71-32.21,20.65-50.04,25.82,1.27-18.24.95-37.36-3.21-55.86-2.13-9.9-6.61-23.94-9.29-29.11-1.05-2.04-1.44-3.06-.17-3.14h0c26.43,4.13,54.63,26.17,71.03,48.67,3.36,5.11,3.53,4.83-8.32,13.62Z"/><path class="d" d="M708.49,595.69h0c-24.8-19.42-52.23-30.45-82.41-30.67-21-.14-39.9,2.9-54.77,9.98,7.54,12.17,16.11,30.2,19.22,40.75,1.24,4.2,1.3,4.25,5.88,4.25,51.11,1.36,93.07,25.23,116.48,75.19,6.35-7.04,15.91-28.4,18.98-38.19,2.67-8.91,6.54-26.2,6.57-29.33-.64-4.96-20.58-25.91-29.95-31.98ZM735.99,634.9s.02.01.03.01c-.01.02-.02.03-.03.04v-.05Z"/><path class="d" d="M719.64,538.77c-22.03-17.32-53.12-28.73-85.55-26.55-25.24-.65-46.99,9.1-66.61,19.36.01-.05,1.47-4.36,3.25-9.59,14.12-39.85,42.15-62.22,83.25-61.41.5-.01.99-.01,1.48-.01,24.8,0,43.25,6.45,63.54,19.56,1.66,15.28,6.27,55.78,9.5,63.62,1.25,3.13-8.23-4.49-8.86-4.98Z"/><path class="b" d="M254.47,343.05c-1.71,18.58-42.33,40.42-60.33,23.06-31.07-20.53-23.87-79.91,17.84-79.41-10.38,7.06-15.2,22.5-12.65,37.52,3.52,18.84,17.22,35.77,28.94,35.77,9.93,1.37,26.6-21.9,26.2-16.94Z"/><path class="b" d="M411.65,326.96c-17.93,6.85-13.93,11.55-32.38-3.15-4.91-4.1-12.4-14.4-13.42-18.44-.51-4.27,8.71-22.51,14.51-28.51,2.59,21.15,9.81,36.3,25.27,46.07l6.02,4.03Z"/><path class="b" d="M459.35,322.99h-16.99c21.24-15.64,23.68-39.64,10.2-62.37-7.31-11.26-19.18-16.25-32.58-17.27,30.87-11.03,58.17,6.63,58.49,41.17.97,14.45-8.13,27.04-19.12,38.47Z"/><path class="b" d="M781.23,640.83c.35-81.68-43.58-166.25-4.3-241.98-3.23-11.25-64.52-16.36-79.95-12.83-13.9,1.95-30.04,7.58-42.34,13.77,18.94-17.63,40.42-41.8,51.71-62.52,4.55-3.91-13.23-3.84-16.64-5.7,9.36-16.67,29.69-54.58,31.59-70.08-27.39-6.79-60.51-21.24-82.88-39.55,7.92-74.57-14.55-149.81-54.81-214.93-4.13-6.64-4.56-7.01-8.08-7.01-61.55,5.01-142.04,44.53-180.7,92.05-46.59-.25-94.77,4.73-132.08,20.66-3.1,1.43-3.38,1.37-7-1.48-43.83-31.37-96.85-55.62-152.32-54.66-26.43-.09-25.48-.48-29.24,12.08-19.97,66.77-7.78,144.47,31.5,200.37-29.61,38.17-55.18,60.14-105.55,74.95-1.29,1.23,6.78,24.17,12.65,35.96,8.02,16.7,17.75,29.21,29.5,42.68-2.28,1.41-14.18,4.84-10.44,7.07,18.81,24.2,39.02,40.26,65.37,57.11,58.86,35.38,52.36,7.69,45.12,51.91-35.45,22.84-70.73,52.38-84.27,89.36-19.23,52.66,19.09,104.76,74.23,109.59,14.43,2.13,34.66-2.72,34.49-.71-1.95,22.43-.79,50.34,1.3,71.08.38,3.77,0,5.52,12.97,7.86,86.36,17.61,207.37,22.06,304.41,13.13,123.96-7.33,298.92-38.58,295.76-188.18ZM183.98,799.55c-3.98-46.4-1.88-72.13,1.13-85.33-6.73,6.25-21.8,9.21-37.19,9.84-56.06,6.81-101.14-49.55-72.34-101.48,12.92-25.95,36.62-49.82,71.1-71.59,6.37-4.03,8.71-6.06,8.75-7.61.12-5.35,3.4-20.54,6.48-30.05,2.33-7.17,3.03-10.58,2.23-10.82-10.56-2.83-33.66-12.42-44.66-18.23-24.16-12.95-48.67-31.48-67.34-49.87,5.8-2.62,7.6-3.07,14.18-6.49-20.53-19.99-41.85-47.65-50.52-75.53,47.84-14.1,78.06-42.25,107.58-84.18-43.1-50.02-56.23-135.6-35.59-198.21,62.43-3.92,121.8,22.96,169.86,63.1,41.26-19.92,97.19-28.79,143.33-24.97,17.98-23.9,45.37-45.68,75.63-62.27,30.26-16.6,63.38-28.01,92.8-31.16,5.69-1.16,23.11,41.27,29.1,53.3,23.39,59.31,30.63,108.85,22.74,157.9,14.34,13.64,61.25,40.33,80.6,43.1,2.3,0,2.11,1-2.37,12.1-8.93,22.46-22.78,41.76-39.04,57.66,7.61.63,17.92,1.47,24.14,2.74-35.87,54.56-88.37,96.03-151.16,131.83,4.36,3.94,16.55,22.93,17.05,26.51.28.61,2.99-2.88,6.26-7.39,41.37-56.71,128.56-113.74,201.22-89.32-30.83,81.15,1.3,140.15,7.56,217.79,38.68,269.9-582.53,192.4-581.53,178.63Z"/><path d="M735.99,634.9v.05s.02-.02.03-.04c-.01,0-.02,0-.03-.01ZM735.99,634.9v.05s.02-.02.03-.04c-.01,0-.02,0-.03-.01ZM735.99,634.9v.05s.02-.02.03-.04c-.01,0-.02,0-.03-.01ZM735.99,634.9v.05s.02-.02.03-.04c-.01,0-.02,0-.03-.01ZM735.99,634.9v.05s.02-.02.03-.04c-.01,0-.02,0-.03-.01ZM735.99,634.9v.05s.02-.02.03-.04c-.01,0-.02,0-.03-.01ZM735.99,634.9v.05s.02-.02.03-.04c-.01,0-.02,0-.03-.01ZM735.99,634.9v.05s.02-.02.03-.04c-.01,0-.02,0-.03-.01ZM735.99,634.9v.05s.02-.02.03-.04c-.01,0-.02,0-.03-.01ZM735.99,634.9v.05s.02-.02.03-.04c-.01,0-.02,0-.03-.01ZM735.99,634.9v.05s.02-.02.03-.04c-.01,0-.02,0-.03-.01ZM735.99,634.9v.05s.02-.02.03-.04c-.01,0-.02,0-.03-.01ZM450.96,352.84c-13.18-6.04-30.97-4.3-44.53,1.93-14.54,5.69,7.2,3.54,10.05,6.19-12.65,26.74-90.57,71.23-121.04,46.65,13.93-7.04,34.09-20.94,35.03-36.21-.16-45.71-139.26-4.18-72.66,34.06,5.62,2.49,14.76,4.54,20.25,4.54,6.24-.02,6.48,10.6,17.77,11.42,3.79.57,4.31,1.02,6.06,5.27,5.08,12.28,21.06,31.07,32.83,38.6,56.54,40.92,101.79-47.86,100.04-102.29,6.42-.16,18.34-.44,23.47-.18,12.3,1.36-.51-6.25-7.27-9.98ZM285.65,378.04c-8.51,3.54-33.38,1.55-19.17-8.23,7.75-4.21,23.86-8.87,32.96-5.86,3.94,2.5-4.76,11.39-13.79,14.09ZM402.45,427.4c-8,15.39-17.54,26.14-27.51,31.01-11.41,6.94-32.95,2.13-38.26-7.47.77-2.15,11.77-14.45,17.29-19.33,20.98-18,38.45-28.47,52.82-28,1.9.28,2.64,1.73,2.64,3.85,0,5.15-4.35,14.23-6.98,19.94ZM735.99,634.9v.05s.02-.02.03-.04c-.01,0-.02,0-.03-.01ZM735.99,634.9v.05s.02-.02.03-.04c-.01,0-.02,0-.03-.01ZM450.96,352.84c-13.18-6.04-30.97-4.3-44.53,1.93-14.54,5.69,7.2,3.54,10.05,6.19-12.65,26.74-90.57,71.23-121.04,46.65,13.93-7.04,34.09-20.94,35.03-36.21-.16-45.71-139.26-4.18-72.66,34.06,5.62,2.49,14.76,4.54,20.25,4.54,6.24-.02,6.48,10.6,17.77,11.42,3.79.57,4.31,1.02,6.06,5.27,5.08,12.28,21.06,31.07,32.83,38.6,56.54,40.92,101.79-47.86,100.04-102.29,6.42-.16,18.34-.44,23.47-.18,12.3,1.36-.51-6.25-7.27-9.98ZM285.65,378.04c-8.51,3.54-33.38,1.55-19.17-8.23,7.75-4.21,23.86-8.87,32.96-5.86,3.94,2.5-4.76,11.39-13.79,14.09ZM402.45,427.4c-8,15.39-17.54,26.14-27.51,31.01-11.41,6.94-32.95,2.13-38.26-7.47.77-2.15,11.77-14.45,17.29-19.33,20.98-18,38.45-28.47,52.82-28,1.9.28,2.64,1.73,2.64,3.85,0,5.15-4.35,14.23-6.98,19.94ZM450.96,352.84c-13.18-6.04-30.97-4.3-44.53,1.93-14.54,5.69,7.2,3.54,10.05,6.19-12.65,26.74-90.57,71.23-121.04,46.65,13.93-7.04,34.09-20.94,35.03-36.21-.16-45.71-139.26-4.18-72.66,34.06,5.62,2.49,14.76,4.54,20.25,4.54,6.24-.02,6.48,10.6,17.77,11.42,3.79.57,4.31,1.02,6.06,5.27,5.08,12.28,21.06,31.07,32.83,38.6,56.54,40.92,101.79-47.86,100.04-102.29,6.42-.16,18.34-.44,23.47-.18,12.3,1.36-.51-6.25-7.27-9.98ZM285.65,378.04c-8.51,3.54-33.38,1.55-19.17-8.23,7.75-4.21,23.86-8.87,32.96-5.86,3.94,2.5-4.76,11.39-13.79,14.09ZM402.45,427.4c-8,15.39-17.54,26.14-27.51,31.01-11.41,6.94-32.95,2.13-38.26-7.47.77-2.15,11.77-14.45,17.29-19.33,20.98-18,38.45-28.47,52.82-28,1.9.28,2.64,1.73,2.64,3.85,0,5.15-4.35,14.23-6.98,19.94ZM735.99,634.9v.05s.02-.02.03-.04c-.01,0-.02,0-.03-.01ZM735.99,634.9v.05s.02-.02.03-.04c-.01,0-.02,0-.03-.01ZM450.96,352.84c-13.18-6.04-30.97-4.3-44.53,1.93-14.54,5.69,7.2,3.54,10.05,6.19-12.65,26.74-90.57,71.23-121.04,46.65,13.93-7.04,34.09-20.94,35.03-36.21-.16-45.71-139.26-4.18-72.66,34.06,5.62,2.49,14.76,4.54,20.25,4.54,6.24-.02,6.48,10.6,17.77,11.42,3.79.57,4.31,1.02,6.06,5.27,5.08,12.28,21.06,31.07,32.83,38.6,56.54,40.92,101.79-47.86,100.04-102.29,6.42-.16,18.34-.44,23.47-.18,12.3,1.36-.51-6.25-7.27-9.98ZM285.65,378.04c-8.51,3.54-33.38,1.55-19.17-8.23,7.75-4.21,23.86-8.87,32.96-5.86,3.94,2.5-4.76,11.39-13.79,14.09ZM402.45,427.4c-8,15.39-17.54,26.14-27.51,31.01-11.41,6.94-32.95,2.13-38.26-7.47.77-2.15,11.77-14.45,17.29-19.33,20.98-18,38.45-28.47,52.82-28,1.9.28,2.64,1.73,2.64,3.85,0,5.15-4.35,14.23-6.98,19.94ZM450.96,352.84c-13.18-6.04-30.97-4.3-44.53,1.93-14.54,5.69,7.2,3.54,10.05,6.19-12.65,26.74-90.57,71.23-121.04,46.65,13.93-7.04,34.09-20.94,35.03-36.21-.16-45.71-139.26-4.18-72.66,34.06,5.62,2.49,14.76,4.54,20.25,4.54,6.24-.02,6.48,10.6,17.77,11.42,3.79.57,4.31,1.02,6.06,5.27,5.08,12.28,21.06,31.07,32.83,38.6,56.54,40.92,101.79-47.86,100.04-102.29,6.42-.16,18.34-.44,23.47-.18,12.3,1.36-.51-6.25-7.27-9.98ZM285.65,378.04c-8.51,3.54-33.38,1.55-19.17-8.23,7.75-4.21,23.86-8.87,32.96-5.86,3.94,2.5-4.76,11.39-13.79,14.09ZM402.45,427.4c-8,15.39-17.54,26.14-27.51,31.01-11.41,6.94-32.95,2.13-38.26-7.47.77-2.15,11.77-14.45,17.29-19.33,20.98-18,38.45-28.47,52.82-28,1.9.28,2.64,1.73,2.64,3.85,0,5.15-4.35,14.23-6.98,19.94ZM735.99,634.9v.05s.02-.02.03-.04c-.01,0-.02,0-.03-.01ZM735.99,634.9v.05s.02-.02.03-.04c-.01,0-.02,0-.03-.01ZM450.96,352.84c-13.18-6.04-30.97-4.3-44.53,1.93-14.54,5.69,7.2,3.54,10.05,6.19-12.65,26.74-90.57,71.23-121.04,46.65,13.93-7.04,34.09-20.94,35.03-36.21-.16-45.71-139.26-4.18-72.66,34.06,5.62,2.49,14.76,4.54,20.25,4.54,6.24-.02,6.48,10.6,17.77,11.42,3.79.57,4.31,1.02,6.06,5.27,5.08,12.28,21.06,31.07,32.83,38.6,56.54,40.92,101.79-47.86,100.04-102.29,6.42-.16,18.34-.44,23.47-.18,12.3,1.36-.51-6.25-7.27-9.98ZM285.65,378.04c-8.51,3.54-33.38,1.55-19.17-8.23,7.75-4.21,23.86-8.87,32.96-5.86,3.94,2.5-4.76,11.39-13.79,14.09ZM402.45,427.4c-8,15.39-17.54,26.14-27.51,31.01-11.41,6.94-32.95,2.13-38.26-7.47.77-2.15,11.77-14.45,17.29-19.33,20.98-18,38.45-28.47,52.82-28,1.9.28,2.64,1.73,2.64,3.85,0,5.15-4.35,14.23-6.98,19.94ZM450.96,352.84c-13.18-6.04-30.97-4.3-44.53,1.93-14.54,5.69,7.2,3.54,10.05,6.19-12.65,26.74-90.57,71.23-121.04,46.65,13.93-7.04,34.09-20.94,35.03-36.21-.16-45.71-139.26-4.18-72.66,34.06,5.62,2.49,14.76,4.54,20.25,4.54,6.24-.02,6.48,10.6,17.77,11.42,3.79.57,4.31,1.02,6.06,5.27,5.08,12.28,21.06,31.07,32.83,38.6,56.54,40.92,101.79-47.86,100.04-102.29,6.42-.16,18.34-.44,23.47-.18,12.3,1.36-.51-6.25-7.27-9.98ZM285.65,378.04c-8.51,3.54-33.38,1.55-19.17-8.23,7.75-4.21,23.86-8.87,32.96-5.86,3.94,2.5-4.76,11.39-13.79,14.09ZM402.45,427.4c-8,15.39-17.54,26.14-27.51,31.01-11.41,6.94-32.95,2.13-38.26-7.47.77-2.15,11.77-14.45,17.29-19.33,20.98-18,38.45-28.47,52.82-28,1.9.28,2.64,1.73,2.64,3.85,0,5.15-4.35,14.23-6.98,19.94ZM735.99,634.9v.05s.02-.02.03-.04c-.01,0-.02,0-.03-.01ZM735.99,634.9v.05s.02-.02.03-.04c-.01,0-.02,0-.03-.01ZM450.96,352.84c-13.18-6.04-30.97-4.3-44.53,1.93-14.54,5.69,7.2,3.54,10.05,6.19-12.65,26.74-90.57,71.23-121.04,46.65,13.93-7.04,34.09-20.94,35.03-36.21-.16-45.71-139.26-4.18-72.66,34.06,5.62,2.49,14.76,4.54,20.25,4.54,6.24-.02,6.48,10.6,17.77,11.42,3.79.57,4.31,1.02,6.06,5.27,5.08,12.28,21.06,31.07,32.83,38.6,56.54,40.92,101.79-47.86,100.04-102.29,6.42-.16,18.34-.44,23.47-.18,12.3,1.36-.51-6.25-7.27-9.98ZM285.65,378.04c-8.51,3.54-33.38,1.55-19.17-8.23,7.75-4.21,23.86-8.87,32.96-5.86,3.94,2.5-4.76,11.39-13.79,14.09ZM402.45,427.4c-8,15.39-17.54,26.14-27.51,31.01-11.41,6.94-32.95,2.13-38.26-7.47.77-2.15,11.77-14.45,17.29-19.33,20.98-18,38.45-28.47,52.82-28,1.9.28,2.64,1.73,2.64,3.85,0,5.15-4.35,14.23-6.98,19.94ZM450.96,352.84c-13.18-6.04-30.97-4.3-44.53,1.93-14.54,5.69,7.2,3.54,10.05,6.19-12.65,26.74-90.57,71.23-121.04,46.65,13.93-7.04,34.09-20.94,35.03-36.21-.16-45.71-139.26-4.18-72.66,34.06,5.62,2.49,14.76,4.54,20.25,4.54,6.24-.02,6.48,10.6,17.77,11.42,3.79.57,4.31,1.02,6.06,5.27,5.08,12.28,21.06,31.07,32.83,38.6,56.54,40.92,101.79-47.86,100.04-102.29,6.42-.16,18.34-.44,23.47-.18,12.3,1.36-.51-6.25-7.27-9.98ZM285.65,378.04c-8.51,3.54-33.38,1.55-19.17-8.23,7.75-4.21,23.86-8.87,32.96-5.86,3.94,2.5-4.76,11.39-13.79,14.09ZM402.45,427.4c-8,15.39-17.54,26.14-27.51,31.01-11.41,6.94-32.95,2.13-38.26-7.47.77-2.15,11.77-14.45,17.29-19.33,20.98-18,38.45-28.47,52.82-28,1.9.28,2.64,1.73,2.64,3.85,0,5.15-4.35,14.23-6.98,19.94ZM735.99,634.9v.05s.02-.02.03-.04c-.01,0-.02,0-.03-.01ZM735.99,634.9v.05s.02-.02.03-.04c-.01,0-.02,0-.03-.01ZM450.96,352.84c-13.18-6.04-30.97-4.3-44.53,1.93-14.54,5.69,7.2,3.54,10.05,6.19-12.65,26.74-90.57,71.23-121.04,46.65,13.93-7.04,34.09-20.94,35.03-36.21-.16-45.71-139.26-4.18-72.66,34.06,5.62,2.49,14.76,4.54,20.25,4.54,6.24-.02,6.48,10.6,17.77,11.42,3.79.57,4.31,1.02,6.06,5.27,5.08,12.28,21.06,31.07,32.83,38.6,56.54,40.92,101.79-47.86,100.04-102.29,6.42-.16,18.34-.44,23.47-.18,12.3,1.36-.51-6.25-7.27-9.98ZM285.65,378.04c-8.51,3.54-33.38,1.55-19.17-8.23,7.75-4.21,23.86-8.87,32.96-5.86,3.94,2.5-4.76,11.39-13.79,14.09ZM402.45,427.4c-8,15.39-17.54,26.14-27.51,31.01-11.41,6.94-32.95,2.13-38.26-7.47.77-2.15,11.77-14.45,17.29-19.33,20.98-18,38.45-28.47,52.82-28,1.9.28,2.64,1.73,2.64,3.85,0,5.15-4.35,14.23-6.98,19.94ZM450.96,352.84c-13.18-6.04-30.97-4.3-44.53,1.93-14.54,5.69,7.2,3.54,10.05,6.19-12.65,26.74-90.57,71.23-121.04,46.65,13.93-7.04,34.09-20.94,35.03-36.21-.16-45.71-139.26-4.18-72.66,34.06,5.62,2.49,14.76,4.54,20.25,4.54,6.24-.02,6.48,10.6,17.77,11.42,3.79.57,4.31,1.02,6.06,5.27,5.08,12.28,21.06,31.07,32.83,38.6,56.54,40.92,101.79-47.86,100.04-102.29,6.42-.16,18.34-.44,23.47-.18,12.3,1.36-.51-6.25-7.27-9.98ZM285.65,378.04c-8.51,3.54-33.38,1.55-19.17-8.23,7.75-4.21,23.86-8.87,32.96-5.86,3.94,2.5-4.76,11.39-13.79,14.09ZM402.45,427.4c-8,15.39-17.54,26.14-27.51,31.01-11.41,6.94-32.95,2.13-38.26-7.47.77-2.15,11.77-14.45,17.29-19.33,20.98-18,38.45-28.47,52.82-28,1.9.28,2.64,1.73,2.64,3.85,0,5.15-4.35,14.23-6.98,19.94ZM735.99,634.9v.05s.02-.02.03-.04c-.01,0-.02,0-.03-.01ZM735.99,634.9v.05s.02-.02.03-.04c-.01,0-.02,0-.03-.01ZM450.96,352.84c-13.18-6.04-30.97-4.3-44.53,1.93-14.54,5.69,7.2,3.54,10.05,6.19-12.65,26.74-90.57,71.23-121.04,46.65,13.93-7.04,34.09-20.94,35.03-36.21-.16-45.71-139.26-4.18-72.66,34.06,5.62,2.49,14.76,4.54,20.25,4.54,6.24-.02,6.48,10.6,17.77,11.42,3.79.57,4.31,1.02,6.06,5.27,5.08,12.28,21.06,31.07,32.83,38.6,56.54,40.92,101.79-47.86,100.04-102.29,6.42-.16,18.34-.44,23.47-.18,12.3,1.36-.51-6.25-7.27-9.98ZM285.65,378.04c-8.51,3.54-33.38,1.55-19.17-8.23,7.75-4.21,23.86-8.87,32.96-5.86,3.94,2.5-4.76,11.39-13.79,14.09ZM402.45,427.4c-8,15.39-17.54,26.14-27.51,31.01-11.41,6.94-32.95,2.13-38.26-7.47.77-2.15,11.77-14.45,17.29-19.33,20.98-18,38.45-28.47,52.82-28,1.9.28,2.64,1.73,2.64,3.85,0,5.15-4.35,14.23-6.98,19.94ZM450.96,352.84c-13.18-6.04-30.97-4.3-44.53,1.93-14.54,5.69,7.2,3.54,10.05,6.19-12.65,26.74-90.57,71.23-121.04,46.65,13.93-7.04,34.09-20.94,35.03-36.21-.16-45.71-139.26-4.18-72.66,34.06,5.62,2.49,14.76,4.54,20.25,4.54,6.24-.02,6.48,10.6,17.77,11.42,3.79.57,4.31,1.02,6.06,5.27,5.08,12.28,21.06,31.07,32.83,38.6,56.54,40.92,101.79-47.86,100.04-102.29,6.42-.16,18.34-.44,23.47-.18,12.3,1.36-.51-6.25-7.27-9.98ZM285.65,378.04c-8.51,3.54-33.38,1.55-19.17-8.23,7.75-4.21,23.86-8.87,32.96-5.86,3.94,2.5-4.76,11.39-13.79,14.09ZM402.45,427.4c-8,15.39-17.54,26.14-27.51,31.01-11.41,6.94-32.95,2.13-38.26-7.47.77-2.15,11.77-14.45,17.29-19.33,20.98-18,38.45-28.47,52.82-28,1.9.28,2.64,1.73,2.64,3.85,0,5.15-4.35,14.23-6.98,19.94ZM735.99,634.9v.05s.02-.02.03-.04c-.01,0-.02,0-.03-.01ZM735.99,634.9v.05s.02-.02.03-.04c-.01,0-.02,0-.03-.01ZM450.96,352.84c-13.18-6.04-30.97-4.3-44.53,1.93-14.54,5.69,7.2,3.54,10.05,6.19-12.65,26.74-90.57,71.23-121.04,46.65,13.93-7.04,34.09-20.94,35.03-36.21-.16-45.71-139.26-4.18-72.66,34.06,5.62,2.49,14.76,4.54,20.25,4.54,6.24-.02,6.48,10.6,17.77,11.42,3.79.57,4.31,1.02,6.06,5.27,5.08,12.28,21.06,31.07,32.83,38.6,56.54,40.92,101.79-47.86,100.04-102.29,6.42-.16,18.34-.44,23.47-.18,12.3,1.36-.51-6.25-7.27-9.98ZM285.65,378.04c-8.51,3.54-33.38,1.55-19.17-8.23,7.75-4.21,23.86-8.87,32.96-5.86,3.94,2.5-4.76,11.39-13.79,14.09ZM402.45,427.4c-8,15.39-17.54,26.14-27.51,31.01-11.41,6.94-32.95,2.13-38.26-7.47.77-2.15,11.77-14.45,17.29-19.33,20.98-18,38.45-28.47,52.82-28,1.9.28,2.64,1.73,2.64,3.85,0,5.15-4.35,14.23-6.98,19.94ZM450.96,352.84c-13.18-6.04-30.97-4.3-44.53,1.93-14.54,5.69,7.2,3.54,10.05,6.19-12.65,26.74-90.57,71.23-121.04,46.65,13.93-7.04,34.09-20.94,35.03-36.21-.16-45.71-139.26-4.18-72.66,34.06,5.62,2.49,14.76,4.54,20.25,4.54,6.24-.02,6.48,10.6,17.77,11.42,3.79.57,4.31,1.02,6.06,5.27,5.08,12.28,21.06,31.07,32.83,38.6,56.54,40.92,101.79-47.86,100.04-102.29,6.42-.16,18.34-.44,23.47-.18,12.3,1.36-.51-6.25-7.27-9.98ZM285.65,378.04c-8.51,3.54-33.38,1.55-19.17-8.23,7.75-4.21,23.86-8.87,32.96-5.86,3.94,2.5-4.76,11.39-13.79,14.09ZM402.45,427.4c-8,15.39-17.54,26.14-27.51,31.01-11.41,6.94-32.95,2.13-38.26-7.47.77-2.15,11.77-14.45,17.29-19.33,20.98-18,38.45-28.47,52.82-28,1.9.28,2.64,1.73,2.64,3.85,0,5.15-4.35,14.23-6.98,19.94ZM735.99,634.9v.05s.02-.02.03-.04c-.01,0-.02,0-.03-.01ZM735.99,634.9v.05s.02-.02.03-.04c-.01,0-.02,0-.03-.01ZM450.96,352.84c-13.18-6.04-30.97-4.3-44.53,1.93-14.54,5.69,7.2,3.54,10.05,6.19-12.65,26.74-90.57,71.23-121.04,46.65,13.93-7.04,34.09-20.94,35.03-36.21-.16-45.71-139.26-4.18-72.66,34.06,5.62,2.49,14.76,4.54,20.25,4.54,6.24-.02,6.48,10.6,17.77,11.42,3.79.57,4.31,1.02,6.06,5.27,5.08,12.28,21.06,31.07,32.83,38.6,56.54,40.92,101.79-47.86,100.04-102.29,6.42-.16,18.34-.44,23.47-.18,12.3,1.36-.51-6.25-7.27-9.98ZM285.65,378.04c-8.51,3.54-33.38,1.55-19.17-8.23,7.75-4.21,23.86-8.87,32.96-5.86,3.94,2.5-4.76,11.39-13.79,14.09ZM402.45,427.4c-8,15.39-17.54,26.14-27.51,31.01-11.41,6.94-32.95,2.13-38.26-7.47.77-2.15,11.77-14.45,17.29-19.33,20.98-18,38.45-28.47,52.82-28,1.9.28,2.64,1.73,2.64,3.85,0,5.15-4.35,14.23-6.98,19.94ZM450.96,352.84c-13.18-6.04-30.97-4.3-44.53,1.93-14.54,5.69,7.2,3.54,10.05,6.19-12.65,26.74-90.57,71.23-121.04,46.65,13.93-7.04,34.09-20.94,35.03-36.21-.16-45.71-139.26-4.18-72.66,34.06,5.62,2.49,14.76,4.54,20.25,4.54,6.24-.02,6.48,10.6,17.77,11.42,3.79.57,4.31,1.02,6.06,5.27,5.08,12.28,21.06,31.07,32.83,38.6,56.54,40.92,101.79-47.86,100.04-102.29,6.42-.16,18.34-.44,23.47-.18,12.3,1.36-.51-6.25-7.27-9.98ZM285.65,378.04c-8.51,3.54-33.38,1.55-19.17-8.23,7.75-4.21,23.86-8.87,32.96-5.86,3.94,2.5-4.76,11.39-13.79,14.09ZM402.45,427.4c-8,15.39-17.54,26.14-27.51,31.01-11.41,6.94-32.95,2.13-38.26-7.47.77-2.15,11.77-14.45,17.29-19.33,20.98-18,38.45-28.47,52.82-28,1.9.28,2.64,1.73,2.64,3.85,0,5.15-4.35,14.23-6.98,19.94ZM735.99,634.9v.05s.02-.02.03-.04c-.01,0-.02,0-.03-.01ZM735.99,634.9v.05s.02-.02.03-.04c-.01,0-.02,0-.03-.01ZM450.96,352.84c-13.18-6.04-30.97-4.3-44.53,1.93-14.54,5.69,7.2,3.54,10.05,6.19-12.65,26.74-90.57,71.23-121.04,46.65,13.93-7.04,34.09-20.94,35.03-36.21-.16-45.71-139.26-4.18-72.66,34.06,5.62,2.49,14.76,4.54,20.25,4.54,6.24-.02,6.48,10.6,17.77,11.42,3.79.57,4.31,1.02,6.06,5.27,5.08,12.28,21.06,31.07,32.83,38.6,56.54,40.92,101.79-47.86,100.04-102.29,6.42-.16,18.34-.44,23.47-.18,12.3,1.36-.51-6.25-7.27-9.98ZM285.65,378.04c-8.51,3.54-33.38,1.55-19.17-8.23,7.75-4.21,23.86-8.87,32.96-5.86,3.94,2.5-4.76,11.39-13.79,14.09ZM402.45,427.4c-8,15.39-17.54,26.14-27.51,31.01-11.41,6.94-32.95,2.13-38.26-7.47.77-2.15,11.77-14.45,17.29-19.33,20.98-18,38.45-28.47,52.82-28,1.9.28,2.64,1.73,2.64,3.85,0,5.15-4.35,14.23-6.98,19.94ZM450.96,352.84c-13.18-6.04-30.97-4.3-44.53,1.93-14.54,5.69,7.2,3.54,10.05,6.19-12.65,26.74-90.57,71.23-121.04,46.65,13.93-7.04,34.09-20.94,35.03-36.21-.16-45.71-139.26-4.18-72.66,34.06,5.62,2.49,14.76,4.54,20.25,4.54,6.24-.02,6.48,10.6,17.77,11.42,3.79.57,4.31,1.02,6.06,5.27,5.08,12.28,21.06,31.07,32.83,38.6,56.54,40.92,101.79-47.86,100.04-102.29,6.42-.16,18.34-.44,23.47-.18,12.3,1.36-.51-6.25-7.27-9.98ZM285.65,378.04c-8.51,3.54-33.38,1.55-19.17-8.23,7.75-4.21,23.86-8.87,32.96-5.86,3.94,2.5-4.76,11.39-13.79,14.09ZM402.45,427.4c-8,15.39-17.54,26.14-27.51,31.01-11.41,6.94-32.95,2.13-38.26-7.47.77-2.15,11.77-14.45,17.29-19.33,20.98-18,38.45-28.47,52.82-28,1.9.28,2.64,1.73,2.64,3.85,0,5.15-4.35,14.23-6.98,19.94ZM735.99,634.9v.05s.02-.02.03-.04c-.01,0-.02,0-.03-.01ZM735.99,634.9v.05s.02-.02.03-.04c-.01,0-.02,0-.03-.01ZM450.96,352.84c-13.18-6.04-30.97-4.3-44.53,1.93-14.54,5.69,7.2,3.54,10.05,6.19-12.65,26.74-90.57,71.23-121.04,46.65,13.93-7.04,34.09-20.94,35.03-36.21-.16-45.71-139.26-4.18-72.66,34.06,5.62,2.49,14.76,4.54,20.25,4.54,6.24-.02,6.48,10.6,17.77,11.42,3.79.57,4.31,1.02,6.06,5.27,5.08,12.28,21.06,31.07,32.83,38.6,56.54,40.92,101.79-47.86,100.04-102.29,6.42-.16,18.34-.44,23.47-.18,12.3,1.36-.51-6.25-7.27-9.98ZM285.65,378.04c-8.51,3.54-33.38,1.55-19.17-8.23,7.75-4.21,23.86-8.87,32.96-5.86,3.94,2.5-4.76,11.39-13.79,14.09ZM402.45,427.4c-8,15.39-17.54,26.14-27.51,31.01-11.41,6.94-32.95,2.13-38.26-7.47.77-2.15,11.77-14.45,17.29-19.33,20.98-18,38.45-28.47,52.82-28,1.9.28,2.64,1.73,2.64,3.85,0,5.15-4.35,14.23-6.98,19.94ZM450.96,352.84c-13.18-6.04-30.97-4.3-44.53,1.93-14.54,5.69,7.2,3.54,10.05,6.19-12.65,26.74-90.57,71.23-121.04,46.65,13.93-7.04,34.09-20.94,35.03-36.21-.16-45.71-139.26-4.18-72.66,34.06,5.62,2.49,14.76,4.54,20.25,4.54,6.24-.02,6.48,10.6,17.77,11.42,3.79.57,4.31,1.02,6.06,5.27,5.08,12.28,21.06,31.07,32.83,38.6,56.54,40.92,101.79-47.86,100.04-102.29,6.42-.16,18.34-.44,23.47-.18,12.3,1.36-.51-6.25-7.27-9.98ZM285.65,378.04c-8.51,3.54-33.38,1.55-19.17-8.23,7.75-4.21,23.86-8.87,32.96-5.86,3.94,2.5-4.76,11.39-13.79,14.09ZM402.45,427.4c-8,15.39-17.54,26.14-27.51,31.01-11.41,6.94-32.95,2.13-38.26-7.47.77-2.15,11.77-14.45,17.29-19.33,20.98-18,38.45-28.47,52.82-28,1.9.28,2.64,1.73,2.64,3.85,0,5.15-4.35,14.23-6.98,19.94ZM735.99,634.9v.05s.02-.02.03-.04c-.01,0-.02,0-.03-.01ZM735.99,634.9v.05s.02-.02.03-.04c-.01,0-.02,0-.03-.01ZM450.96,352.84c-13.18-6.04-30.97-4.3-44.53,1.93-14.54,5.69,7.2,3.54,10.05,6.19-12.65,26.74-90.57,71.23-121.04,46.65,13.93-7.04,34.09-20.94,35.03-36.21-.16-45.71-139.26-4.18-72.66,34.06,5.62,2.49,14.76,4.54,20.25,4.54,6.24-.02,6.48,10.6,17.77,11.42,3.79.57,4.31,1.02,6.06,5.27,5.08,12.28,21.06,31.07,32.83,38.6,56.54,40.92,101.79-47.86,100.04-102.29,6.42-.16,18.34-.44,23.47-.18,12.3,1.36-.51-6.25-7.27-9.98ZM285.65,378.04c-8.51,3.54-33.38,1.55-19.17-8.23,7.75-4.21,23.86-8.87,32.96-5.86,3.94,2.5-4.76,11.39-13.79,14.09ZM402.45,427.4c-8,15.39-17.54,26.14-27.51,31.01-11.41,6.94-32.95,2.13-38.26-7.47.77-2.15,11.77-14.45,17.29-19.33,20.98-18,38.45-28.47,52.82-28,1.9.28,2.64,1.73,2.64,3.85,0,5.15-4.35,14.23-6.98,19.94ZM765.51,620.92c-6.26-77.64-38.39-136.64-7.56-217.79-72.66-24.42-159.85,32.61-201.22,89.32-3.27,4.51-5.98,8-6.26,7.39-.5-3.58-12.69-22.57-17.05-26.51,62.79-35.8,115.29-77.27,151.16-131.83-6.22-1.27-16.53-2.11-24.14-2.74,16.26-15.9,30.11-35.2,39.04-57.66,4.48-11.1,4.67-12.1,2.37-12.1-19.35-2.77-66.26-29.46-80.6-43.1,7.89-49.05.65-98.59-22.74-157.9-5.99-12.03-23.41-54.46-29.1-53.3-29.42,3.15-62.54,14.56-92.8,31.16-30.26,16.59-57.65,38.37-75.63,62.27-46.14-3.82-102.07,5.05-143.33,24.97-48.06-40.14-107.43-67.02-169.86-63.1-20.64,62.61-7.51,148.19,35.59,198.21-29.52,41.93-59.74,70.08-107.58,84.18,8.67,27.88,29.99,55.54,50.52,75.53-6.58,3.42-8.38,3.87-14.18,6.49,18.67,18.39,43.18,36.92,67.34,49.87,11,5.81,34.1,15.4,44.66,18.23.8.24.1,3.65-2.23,10.82-3.08,9.51-6.36,24.7-6.48,30.05-.04,1.55-2.38,3.58-8.75,7.61-34.48,21.77-58.18,45.64-71.1,71.59-28.8,51.93,16.28,108.29,72.34,101.48,15.39-.63,30.46-3.59,37.19-9.84-3.01,13.2-5.11,38.93-1.13,85.33-1,13.77,620.21,91.27,581.53-178.63ZM570.73,521.99c14.12-39.85,42.15-62.22,83.25-61.41.5-.01.99-.01,1.48-.01,24.8,0,43.25,6.45,63.54,19.56,1.66,15.28,6.27,55.78,9.5,63.62,1.25,3.13-8.23-4.49-8.86-4.98-22.03-17.32-53.12-28.73-85.55-26.55-25.24-.65-46.99,9.1-66.61,19.36.01-.05,1.47-4.36,3.25-9.59ZM534.66,543.81c9.69,43.78,2.94,81.16-29.8,113.1-52.52,47.31-141.17,55.61-182.7-8.18,6.45,2.74,46.76,2.12,47.27.75-25.42-5.37-44.8-18.35-60.64-33.52-9.12-8.62-11.55-12.14-13.86-15.76-.73.73,4.9,14.78,9.11,22.73,1.87,3.54,3.3,6.54,3.17,6.66-.65.65-10.91-7.21-16.76-12.84-10.34-9.95-18.5-23.14-23.62-38.18-3.58-10.52-3.51-10.69,3.39-8.39,29.18,10.27,0-8.34-7.39-17.94-16.26-21.88-18.78-55.61,13.65-43.33,10.99,5.89,26.82,20.48,31.53,33.33,3.79,8.39.25-10.55-1.99-16.2-6.22-17.13-22.79-29.02-39.67-29.54,22.43-21.68,46.34,1.34,60.91,24.09,1.15,1.71,1.22,1.59.67-1.08-3.23-15.32-13.37-29.78-27.09-37.14-3.99-2.08,11.23-4.48,12.07-4.37h0c25.75,7.06,37.22,29.87,47.25,61.91,5.04,16.61,10.69,23.84,21.92,28.04,11.35,4.1,79.37,17.79,91.4,25.29-6.39-15.04-26.67-29.73-46.21-33.44-5.39-1.21-9.79-2.68-9.79-3.27,7.9-19.58,37.85-43.29,53-47.73,1.28-1.29-23.45-.24-22.68-.46,42.71-36.21,74.96-13.37,86.86,35.47ZM246.27,474c18.24,10.67,12.11,11.23.35,23.27-14.7-15.6-33.41-11-50.92-.78,11.83-15.88,30.07-30.46,50.57-22.49ZM237.25,461.31c15.35-8.27,32.5-5.38,44.94,6.2,3.84,3.53,4.39,4.42,2.79,4.46-2.41.08-14.15,4.97-18.2,6.62-8.1-8.14-18.2-13.83-29.53-17.28ZM387.72,545.1c10.42-3.99,18.05-8.11,22.12-11.96,2.48-2.15,4.12-4.37,3.12-1.14-2,4.72-8.69,20.69-13.3,23.91-6.71-.83-17.1-5.16-17.86-7.43-.18-.55,2.48-2.07,5.92-3.38ZM106.26,171.75c-3.1-7.08-2.81-62.88-.94-71.51,2.04-9.9.31-7.26,9.99-5.28,34.18,8.11,77.48,39.85,100.91,72.6-1.48,1.3-21.92,14.54-22.06,14.28-14.61-24.65-41.67-49.67-69.59-63.68-2.77,11.99-1.75,48.45.29,63.33,3.27,19.93,9.29,40.11,15.73,52.73,1.67,3.28,1.81,4.2.73,4.89-12.37,1.04-32.62-49.56-35.06-67.36ZM165.89,200.22s-.08-.09-.09-.1c-6.98-4.79-19.58-27.31-19.58-32.11,0-.46.12-.76.38-.86,8.19-.27,31.68,11.43,41.55,19.34l-28.34,27.4c-2.59-2.62-7.79-7.89-10.37-10.5,3.09.17,17.91-.39,18.73-1.27l-2.28-1.9ZM117.93,446.9c-40.38-30.57-35.26-18.26-4.2-33.15-26.35-6.08-48.3-20.94-63.06-46.17-5.07-8.61-4.28-7.65-1.42-8.55,2.23-.76,18.34-5.76,23.21-7.44,16.23,24.51,46.18,37.55,77.09,42.38,19.68,3.08,39.74,2.83,56.9.09.29-.04.57-.08.86-.13,1.08-1.71,11.69-6.68,12.57-6.65,1.14,2.21,3.63,9.05,5.5,9.05.89,0,1.64-1.58,2.02-6,10.7-45.13,79.63-62.62,117.45-36.75-4.84-10.5-19.73-20.03-32.9-23.26,24.19-6.36,50.07.88,70.66,14.96,5.96,4,6.77,4.29,8.46,2.98,20.25-14.44,45.29-14.72,73.64-14.55,14.3.08,29.44.29,45.24-1.16,9.78-1.46,20.11-4.12,30.43-7.77,30.4-10.7,60.75-29.83,76.88-51.21-64.27-26.16-137.9-91.95-206.3-55.68-13.88,1.97-74.57,69.2-87.61,72.63-10.13,4.8-24.72,2.39-33.4-3.44-.76-.43-1.51-.88-2.24-1.34-38.2-23.84-37.39-80.77-41.83-48.69-1.09,3.31-1.73,7.16-1.98,11.34-.69,11.95,1.83,26.73,6.09,40.15-39.26-29.1-65.09-37.86-108.64,12.99-23.91,25.53-31.45,32.18-47.25,33.81,24.63-21.25,48.21-56.51,69.79-87.26h.01c4.46-6.36,8.84-12.52,13.13-18.33,28.03-31.48,53.45-53.37,89.7-68.75v.02h.02c-1.13,6.7-1.46,19.27-.13,27.19,4.96-11.17,13.15-23.71,20.97-34,29.81-10.96,64.13-18.67,92.88-21.24-2.46,6.64-17.95,21.31-20.98,26.85,19.01-4.25,44.24-11.44,62.92-12.05,2.36-5.3,50.61-56.58,55.8-62.2,6.56-5.4,12.84-10.46,19.12-15.2h.01c17.95-13.59,35.82-24.54,59.94-33.28,25.62,46.09,53.67,134.44,25.7,174.41-.08-47.9-16.47-100.56-36.05-145.4-28.85,18.21-56.76,58.85-75.07,94.97,4.43.72,7.15-1.43,10.58-3.41,9.84-5.92,21.86-12.74,28.19-16.01,5.97-3.06,23.34-10.27,24.46-10.65,0,12.67-7.64,28.59-19.11,37.13,4.1-.39,25.02-4.76,29.23-4.73.54,5.06-7.95,22.54-13.75,27.37,20.72,12.12,70.33,52.17,86.42,59.92l44.45,21.3,4.3,2.06c-10.61,25.03-44.95,52.11-70.17,62.03-1.99,2.89,42.75,3.49,47.99,3.82-5.58,11.94-45.39,46.54-60.72,58.49,0,0,0,.01,0,.01-.37.29-.73.57-1.07.83-37.29,32.61-95.79,66.43-141.81,86.53-1.83.8-3.63,1.58-5.41,2.33-13.55,7.37-60.46,31.51-66.79,20.86-13.34-23.98-34.56-42.97-58.6-43.78-2.6.22-4.22-.52-7.7-3.52-6.74-5.8-17.02-11.55-26.68-14.92-16.18-5.52-38.17-5.47-51.31,3.66-1.68,1.16-3.21,2.47-4.57,3.94-5.75,5.78-26.05,16.75-29.65,23.22-.13.23-.24.46-.32.68-.81,1.53-2.38,1.17-16.13-3.68-16.89-5.96-40.26-17.55-55.75-27.65ZM199.33,324.22c3.52,18.84,17.22,35.77,28.94,35.77,9.93,1.37,26.6-21.9,26.2-16.94-1.71,18.58-42.33,40.42-60.33,23.06-31.07-20.53-23.87-79.91,17.84-79.41-10.38,7.06-15.2,22.5-12.65,37.52ZM229.32,292.99c9.62,0,14.72,12.26,7.48,17.96-12.57,9.82-22.91-17.53-7.48-17.96ZM452.56,260.62c-7.31-11.26-19.18-16.25-32.58-17.27,30.87-11.03,58.17,6.63,58.49,41.17.97,14.45-8.13,27.04-19.12,38.47h-16.99c21.24-15.64,23.68-39.64,10.2-62.37ZM427.25,258.02c6.3,14.1-12.37,26.04-21.65,14.15-9.06-15.08,11.72-30.19,21.65-14.15ZM405.63,322.93l6.02,4.03c-17.93,6.85-13.93,11.55-32.38-3.15-4.91-4.1-12.4-14.4-13.42-18.44-.51-4.27,8.71-22.51,14.51-28.51,2.59,21.15,9.81,36.3,25.27,46.07ZM181.68,662.71c-9.3,5.8-22.46,10.4-27.32,11.27-13.53,2.17,12.51,3.96,14.46,4.02,6.16,0,5.6.71-2,2.53-80.17,13.69-81.44-88.57-12.38-111.62,10.24-4.42,11.04-4.58,11.04-2.24,0,3.15,7.08,16.01,10.69,19.42,2.63,2.48,3.41,2.86,2.87,1.41-12.99-34.57,1.53-88.44,42.86-89.99h.17c38.78,0,2.45,51.79-14.29,56.05-2.79.06,3.57,1.43,4.5,1.45,2.58.01,5.26.38,5.96.82,1.67,1.06,4.24,14.73,4.24,22.57.31,22.65-13.6,45.43-30.08,60.73,6.1-.77,13.07-2.17,19-3.82-7.63,9.77-19.66,21.13-29.72,27.4ZM592.35,710.39c-1.71-3.24-5.2-8.75-7.75-12.25-6.8-9.32-7.16-11.45-7.72-10.89-.22.23.3,5.1,1.16,10.83,2.35,15.6,3.32,39.32,2.31,56.32-1.29,21.58-.93,20.79-9.94,22.33-30.13,5-64.26,9.31-99.85,12.49-75.83,6.76-158.27,8.36-222.7.42-6.23-1.31-32-3.73-35.47-5.78-1.85-2.99-3.42-21.13-3.4-39.36.02-21.23,1.13-29.53,5.88-43.75,2.04-7.29,3.16-7.78-3.13-5.32-6.3,1.63-23.63,7.5-11.39-.74,13.1-10.05,30.3-30.94,36.39-43.69.48,3.31.41,27.42,1.96,30.28,7.89-11.38,14.84-31.39,18.44-47.27,4.38,5.61,18.45,14.49,24.61,17.51,4.17,1.91,5.81,3.3,6.78,5.75,18.76,44.9,88.75,71.7,137.82,78.14.55-.32-8.97-10.82-8.56-11.06h0s.01-.01.01-.01c3.51.69,11.45,2.49,19.41,4.37,7.97,1.87,15.94,3.82,19.51,4.78,3.35,1.37,1.76-1.4-1.76-3.07-1.94-.92-3.73-2-3.98-2.41,8.42-1.18,16.84-2.84,24.99-5.13,21.5-6.02,41.13-16.36,53.85-33.51,2.3.37,14.14,13.07,15.52,13.62,16.57-20.71,19.47-62.08,12.88-90.49,8.92,7.2,17.25,23.86,24.59,44.1,3.89,9.08,19.05,72.76,9.54,53.79ZM672.61,736.37c-14.87,10.71-32.21,20.65-50.04,25.82,1.27-18.24.95-37.36-3.21-55.86-2.13-9.9-6.61-23.94-9.29-29.11-1.05-2.04-1.44-3.06-.17-3.14h0c26.43,4.13,54.63,26.17,71.03,48.67,3.36,5.11,3.53,4.83-8.32,13.62ZM731.87,657c-3.07,9.79-12.63,31.15-18.98,38.19-23.41-49.96-65.37-73.83-116.48-75.19-4.58,0-4.64-.05-5.88-4.25-3.11-10.55-11.68-28.58-19.22-40.75,14.87-7.08,33.77-10.12,54.77-9.98,30.18.22,57.61,11.25,82.41,30.66h0c9.37,6.08,29.31,27.03,29.95,31.99-.03,3.13-3.9,20.42-6.57,29.33ZM735.99,634.9v.05s.02-.02.03-.04c-.01,0-.02,0-.03-.01ZM257.81,405.46c5.62,2.49,14.76,4.54,20.25,4.54,6.24-.02,6.48,10.6,17.77,11.42,3.79.57,4.31,1.02,6.06,5.27,5.08,12.28,21.06,31.07,32.83,38.6,56.54,40.92,101.79-47.86,100.04-102.29,6.42-.16,18.34-.44,23.47-.18,12.3,1.36-.51-6.25-7.27-9.98-13.18-6.04-30.97-4.3-44.53,1.93-14.54,5.69,7.2,3.54,10.05,6.19-12.65,26.74-90.57,71.23-121.04,46.65,13.93-7.04,34.09-20.94,35.03-36.21-.16-45.71-139.26-4.18-72.66,34.06ZM353.97,431.61c20.98-18,38.45-28.47,52.82-28,1.9.28,2.64,1.73,2.64,3.85,0,5.15-4.35,14.23-6.98,19.94-8,15.39-17.54,26.14-27.51,31.01-11.41,6.94-32.95,2.13-38.26-7.47.77-2.15,11.77-14.45,17.29-19.33ZM266.48,369.81c7.75-4.21,23.86-8.87,32.96-5.86,3.94,2.5-4.76,11.39-13.79,14.09-8.51,3.54-33.38,1.55-19.17-8.23ZM450.96,352.84c-13.18-6.04-30.97-4.3-44.53,1.93-14.54,5.69,7.2,3.54,10.05,6.19-12.65,26.74-90.57,71.23-121.04,46.65,13.93-7.04,34.09-20.94,35.03-36.21-.16-45.71-139.26-4.18-72.66,34.06,5.62,2.49,14.76,4.54,20.25,4.54,6.24-.02,6.48,10.6,17.77,11.42,3.79.57,4.31,1.02,6.06,5.27,5.08,12.28,21.06,31.07,32.83,38.6,56.54,40.92,101.79-47.86,100.04-102.29,6.42-.16,18.34-.44,23.47-.18,12.3,1.36-.51-6.25-7.27-9.98ZM285.65,378.04c-8.51,3.54-33.38,1.55-19.17-8.23,7.75-4.21,23.86-8.87,32.96-5.86,3.94,2.5-4.76,11.39-13.79,14.09ZM402.45,427.4c-8,15.39-17.54,26.14-27.51,31.01-11.41,6.94-32.95,2.13-38.26-7.47.77-2.15,11.77-14.45,17.29-19.33,20.98-18,38.45-28.47,52.82-28,1.9.28,2.64,1.73,2.64,3.85,0,5.15-4.35,14.23-6.98,19.94ZM735.99,634.9v.05s.02-.02.03-.04c-.01,0-.02,0-.03-.01ZM735.99,634.9v.05s.02-.02.03-.04c-.01,0-.02,0-.03-.01ZM450.96,352.84c-13.18-6.04-30.97-4.3-44.53,1.93-14.54,5.69,7.2,3.54,10.05,6.19-12.65,26.74-90.57,71.23-121.04,46.65,13.93-7.04,34.09-20.94,35.03-36.21-.16-45.71-139.26-4.18-72.66,34.06,5.62,2.49,14.76,4.54,20.25,4.54,6.24-.02,6.48,10.6,17.77,11.42,3.79.57,4.31,1.02,6.06,5.27,5.08,12.28,21.06,31.07,32.83,38.6,56.54,40.92,101.79-47.86,100.04-102.29,6.42-.16,18.34-.44,23.47-.18,12.3,1.36-.51-6.25-7.27-9.98ZM285.65,378.04c-8.51,3.54-33.38,1.55-19.17-8.23,7.75-4.21,23.86-8.87,32.96-5.86,3.94,2.5-4.76,11.39-13.79,14.09ZM402.45,427.4c-8,15.39-17.54,26.14-27.51,31.01-11.41,6.94-32.95,2.13-38.26-7.47.77-2.15,11.77-14.45,17.29-19.33,20.98-18,38.45-28.47,52.82-28,1.9.28,2.64,1.73,2.64,3.85,0,5.15-4.35,14.23-6.98,19.94ZM450.96,352.84c-13.18-6.04-30.97-4.3-44.53,1.93-14.54,5.69,7.2,3.54,10.05,6.19-12.65,26.74-90.57,71.23-121.04,46.65,13.93-7.04,34.09-20.94,35.03-36.21-.16-45.71-139.26-4.18-72.66,34.06,5.62,2.49,14.76,4.54,20.25,4.54,6.24-.02,6.48,10.6,17.77,11.42,3.79.57,4.31,1.02,6.06,5.27,5.08,12.28,21.06,31.07,32.83,38.6,56.54,40.92,101.79-47.86,100.04-102.29,6.42-.16,18.34-.44,23.47-.18,12.3,1.36-.51-6.25-7.27-9.98ZM285.65,378.04c-8.51,3.54-33.38,1.55-19.17-8.23,7.75-4.21,23.86-8.87,32.96-5.86,3.94,2.5-4.76,11.39-13.79,14.09ZM402.45,427.4c-8,15.39-17.54,26.14-27.51,31.01-11.41,6.94-32.95,2.13-38.26-7.47.77-2.15,11.77-14.45,17.29-19.33,20.98-18,38.45-28.47,52.82-28,1.9.28,2.64,1.73,2.64,3.85,0,5.15-4.35,14.23-6.98,19.94ZM735.99,634.9v.05s.02-.02.03-.04c-.01,0-.02,0-.03-.01ZM735.99,634.9v.05s.02-.02.03-.04c-.01,0-.02,0-.03-.01ZM450.96,352.84c-13.18-6.04-30.97-4.3-44.53,1.93-14.54,5.69,7.2,3.54,10.05,6.19-12.65,26.74-90.57,71.23-121.04,46.65,13.93-7.04,34.09-20.94,35.03-36.21-.16-45.71-139.26-4.18-72.66,34.06,5.62,2.49,14.76,4.54,20.25,4.54,6.24-.02,6.48,10.6,17.77,11.42,3.79.57,4.31,1.02,6.06,5.27,5.08,12.28,21.06,31.07,32.83,38.6,56.54,40.92,101.79-47.86,100.04-102.29,6.42-.16,18.34-.44,23.47-.18,12.3,1.36-.51-6.25-7.27-9.98ZM285.65,378.04c-8.51,3.54-33.38,1.55-19.17-8.23,7.75-4.21,23.86-8.87,32.96-5.86,3.94,2.5-4.76,11.39-13.79,14.09ZM402.45,427.4c-8,15.39-17.54,26.14-27.51,31.01-11.41,6.94-32.95,2.13-38.26-7.47.77-2.15,11.77-14.45,17.29-19.33,20.98-18,38.45-28.47,52.82-28,1.9.28,2.64,1.73,2.64,3.85,0,5.15-4.35,14.23-6.98,19.94ZM450.96,352.84c-13.18-6.04-30.97-4.3-44.53,1.93-14.54,5.69,7.2,3.54,10.05,6.19-12.65,26.74-90.57,71.23-121.04,46.65,13.93-7.04,34.09-20.94,35.03-36.21-.16-45.71-139.26-4.18-72.66,34.06,5.62,2.49,14.76,4.54,20.25,4.54,6.24-.02,6.48,10.6,17.77,11.42,3.79.57,4.31,1.02,6.06,5.27,5.08,12.28,21.06,31.07,32.83,38.6,56.54,40.92,101.79-47.86,100.04-102.29,6.42-.16,18.34-.44,23.47-.18,12.3,1.36-.51-6.25-7.27-9.98ZM285.65,378.04c-8.51,3.54-33.38,1.55-19.17-8.23,7.75-4.21,23.86-8.87,32.96-5.86,3.94,2.5-4.76,11.39-13.79,14.09ZM402.45,427.4c-8,15.39-17.54,26.14-27.51,31.01-11.41,6.94-32.95,2.13-38.26-7.47.77-2.15,11.77-14.45,17.29-19.33,20.98-18,38.45-28.47,52.82-28,1.9.28,2.64,1.73,2.64,3.85,0,5.15-4.35,14.23-6.98,19.94ZM735.99,634.9v.05s.02-.02.03-.04c-.01,0-.02,0-.03-.01ZM735.99,634.9v.05s.02-.02.03-.04c-.01,0-.02,0-.03-.01ZM450.96,352.84c-13.18-6.04-30.97-4.3-44.53,1.93-14.54,5.69,7.2,3.54,10.05,6.19-12.65,26.74-90.57,71.23-121.04,46.65,13.93-7.04,34.09-20.94,35.03-36.21-.16-45.71-139.26-4.18-72.66,34.06,5.62,2.49,14.76,4.54,20.25,4.54,6.24-.02,6.48,10.6,17.77,11.42,3.79.57,4.31,1.02,6.06,5.27,5.08,12.28,21.06,31.07,32.83,38.6,56.54,40.92,101.79-47.86,100.04-102.29,6.42-.16,18.34-.44,23.47-.18,12.3,1.36-.51-6.25-7.27-9.98ZM285.65,378.04c-8.51,3.54-33.38,1.55-19.17-8.23,7.75-4.21,23.86-8.87,32.96-5.86,3.94,2.5-4.76,11.39-13.79,14.09ZM402.45,427.4c-8,15.39-17.54,26.14-27.51,31.01-11.41,6.94-32.95,2.13-38.26-7.47.77-2.15,11.77-14.45,17.29-19.33,20.98-18,38.45-28.47,52.82-28,1.9.28,2.64,1.73,2.64,3.85,0,5.15-4.35,14.23-6.98,19.94ZM450.96,352.84c-13.18-6.04-30.97-4.3-44.53,1.93-14.54,5.69,7.2,3.54,10.05,6.19-12.65,26.74-90.57,71.23-121.04,46.65,13.93-7.04,34.09-20.94,35.03-36.21-.16-45.71-139.26-4.18-72.66,34.06,5.62,2.49,14.76,4.54,20.25,4.54,6.24-.02,6.48,10.6,17.77,11.42,3.79.57,4.31,1.02,6.06,5.27,5.08,12.28,21.06,31.07,32.83,38.6,56.54,40.92,101.79-47.86,100.04-102.29,6.42-.16,18.34-.44,23.47-.18,12.3,1.36-.51-6.25-7.27-9.98ZM285.65,378.04c-8.51,3.54-33.38,1.55-19.17-8.23,7.75-4.21,23.86-8.87,32.96-5.86,3.94,2.5-4.76,11.39-13.79,14.09ZM402.45,427.4c-8,15.39-17.54,26.14-27.51,31.01-11.41,6.94-32.95,2.13-38.26-7.47.77-2.15,11.77-14.45,17.29-19.33,20.98-18,38.45-28.47,52.82-28,1.9.28,2.64,1.73,2.64,3.85,0,5.15-4.35,14.23-6.98,19.94ZM735.99,634.9v.05s.02-.02.03-.04c-.01,0-.02,0-.03-.01ZM735.99,634.9v.05s.02-.02.03-.04c-.01,0-.02,0-.03-.01ZM450.96,352.84c-13.18-6.04-30.97-4.3-44.53,1.93-14.54,5.69,7.2,3.54,10.05,6.19-12.65,26.74-90.57,71.23-121.04,46.65,13.93-7.04,34.09-20.94,35.03-36.21-.16-45.71-139.26-4.18-72.66,34.06,5.62,2.49,14.76,4.54,20.25,4.54,6.24-.02,6.48,10.6,17.77,11.42,3.79.57,4.31,1.02,6.06,5.27,5.08,12.28,21.06,31.07,32.83,38.6,56.54,40.92,101.79-47.86,100.04-102.29,6.42-.16,18.34-.44,23.47-.18,12.3,1.36-.51-6.25-7.27-9.98ZM285.65,378.04c-8.51,3.54-33.38,1.55-19.17-8.23,7.75-4.21,23.86-8.87,32.96-5.86,3.94,2.5-4.76,11.39-13.79,14.09ZM402.45,427.4c-8,15.39-17.54,26.14-27.51,31.01-11.41,6.94-32.95,2.13-38.26-7.47.77-2.15,11.77-14.45,17.29-19.33,20.98-18,38.45-28.47,52.82-28,1.9.28,2.64,1.73,2.64,3.85,0,5.15-4.35,14.23-6.98,19.94ZM450.96,352.84c-13.18-6.04-30.97-4.3-44.53,1.93-14.54,5.69,7.2,3.54,10.05,6.19-12.65,26.74-90.57,71.23-121.04,46.65,13.93-7.04,34.09-20.94,35.03-36.21-.16-45.71-139.26-4.18-72.66,34.06,5.62,2.49,14.76,4.54,20.25,4.54,6.24-.02,6.48,10.6,17.77,11.42,3.79.57,4.31,1.02,6.06,5.27,5.08,12.28,21.06,31.07,32.83,38.6,56.54,40.92,101.79-47.86,100.04-102.29,6.42-.16,18.34-.44,23.47-.18,12.3,1.36-.51-6.25-7.27-9.98ZM285.65,378.04c-8.51,3.54-33.38,1.55-19.17-8.23,7.75-4.21,23.86-8.87,32.96-5.86,3.94,2.5-4.76,11.39-13.79,14.09ZM402.45,427.4c-8,15.39-17.54,26.14-27.51,31.01-11.41,6.94-32.95,2.13-38.26-7.47.77-2.15,11.77-14.45,17.29-19.33,20.98-18,38.45-28.47,52.82-28,1.9.28,2.64,1.73,2.64,3.85,0,5.15-4.35,14.23-6.98,19.94ZM735.99,634.9v.05s.02-.02.03-.04c-.01,0-.02,0-.03-.01ZM735.99,634.9v.05s.02-.02.03-.04c-.01,0-.02,0-.03-.01ZM450.96,352.84c-13.18-6.04-30.97-4.3-44.53,1.93-14.54,5.69,7.2,3.54,10.05,6.19-12.65,26.74-90.57,71.23-121.04,46.65,13.93-7.04,34.09-20.94,35.03-36.21-.16-45.71-139.26-4.18-72.66,34.06,5.62,2.49,14.76,4.54,20.25,4.54,6.24-.02,6.48,10.6,17.77,11.42,3.79.57,4.31,1.02,6.06,5.27,5.08,12.28,21.06,31.07,32.83,38.6,56.54,40.92,101.79-47.86,100.04-102.29,6.42-.16,18.34-.44,23.47-.18,12.3,1.36-.51-6.25-7.27-9.98ZM285.65,378.04c-8.51,3.54-33.38,1.55-19.17-8.23,7.75-4.21,23.86-8.87,32.96-5.86,3.94,2.5-4.76,11.39-13.79,14.09ZM402.45,427.4c-8,15.39-17.54,26.14-27.51,31.01-11.41,6.94-32.95,2.13-38.26-7.47.77-2.15,11.77-14.45,17.29-19.33,20.98-18,38.45-28.47,52.82-28,1.9.28,2.64,1.73,2.64,3.85,0,5.15-4.35,14.23-6.98,19.94ZM450.96,352.84c-13.18-6.04-30.97-4.3-44.53,1.93-14.54,5.69,7.2,3.54,10.05,6.19-12.65,26.74-90.57,71.23-121.04,46.65,13.93-7.04,34.09-20.94,35.03-36.21-.16-45.71-139.26-4.18-72.66,34.06,5.62,2.49,14.76,4.54,20.25,4.54,6.24-.02,6.48,10.6,17.77,11.42,3.79.57,4.31,1.02,6.06,5.27,5.08,12.28,21.06,31.07,32.83,38.6,56.54,40.92,101.79-47.86,100.04-102.29,6.42-.16,18.34-.44,23.47-.18,12.3,1.36-.51-6.25-7.27-9.98ZM285.65,378.04c-8.51,3.54-33.38,1.55-19.17-8.23,7.75-4.21,23.86-8.87,32.96-5.86,3.94,2.5-4.76,11.39-13.79,14.09ZM402.45,427.4c-8,15.39-17.54,26.14-27.51,31.01-11.41,6.94-32.95,2.13-38.26-7.47.77-2.15,11.77-14.45,17.29-19.33,20.98-18,38.45-28.47,52.82-28,1.9.28,2.64,1.73,2.64,3.85,0,5.15-4.35,14.23-6.98,19.94ZM735.99,634.9v.05s.02-.02.03-.04c-.01,0-.02,0-.03-.01ZM735.99,634.9v.05s.02-.02.03-.04c-.01,0-.02,0-.03-.01ZM450.96,352.84c-13.18-6.04-30.97-4.3-44.53,1.93-14.54,5.69,7.2,3.54,10.05,6.19-12.65,26.74-90.57,71.23-121.04,46.65,13.93-7.04,34.09-20.94,35.03-36.21-.16-45.71-139.26-4.18-72.66,34.06,5.62,2.49,14.76,4.54,20.25,4.54,6.24-.02,6.48,10.6,17.77,11.42,3.79.57,4.31,1.02,6.06,5.27,5.08,12.28,21.06,31.07,32.83,38.6,56.54,40.92,101.79-47.86,100.04-102.29,6.42-.16,18.34-.44,23.47-.18,12.3,1.36-.51-6.25-7.27-9.98ZM285.65,378.04c-8.51,3.54-33.38,1.55-19.17-8.23,7.75-4.21,23.86-8.87,32.96-5.86,3.94,2.5-4.76,11.39-13.79,14.09ZM402.45,427.4c-8,15.39-17.54,26.14-27.51,31.01-11.41,6.94-32.95,2.13-38.26-7.47.77-2.15,11.77-14.45,17.29-19.33,20.98-18,38.45-28.47,52.82-28,1.9.28,2.64,1.73,2.64,3.85,0,5.15-4.35,14.23-6.98,19.94ZM450.96,352.84c-13.18-6.04-30.97-4.3-44.53,1.93-14.54,5.69,7.2,3.54,10.05,6.19-12.65,26.74-90.57,71.23-121.04,46.65,13.93-7.04,34.09-20.94,35.03-36.21-.16-45.71-139.26-4.18-72.66,34.06,5.62,2.49,14.76,4.54,20.25,4.54,6.24-.02,6.48,10.6,17.77,11.42,3.79.57,4.31,1.02,6.06,5.27,5.08,12.28,21.06,31.07,32.83,38.6,56.54,40.92,101.79-47.86,100.04-102.29,6.42-.16,18.34-.44,23.47-.18,12.3,1.36-.51-6.25-7.27-9.98ZM285.65,378.04c-8.51,3.54-33.38,1.55-19.17-8.23,7.75-4.21,23.86-8.87,32.96-5.86,3.94,2.5-4.76,11.39-13.79,14.09ZM402.45,427.4c-8,15.39-17.54,26.14-27.51,31.01-11.41,6.94-32.95,2.13-38.26-7.47.77-2.15,11.77-14.45,17.29-19.33,20.98-18,38.45-28.47,52.82-28,1.9.28,2.64,1.73,2.64,3.85,0,5.15-4.35,14.23-6.98,19.94ZM735.99,634.9v.05s.02-.02.03-.04c-.01,0-.02,0-.03-.01ZM735.99,634.9v.05s.02-.02.03-.04c-.01,0-.02,0-.03-.01ZM450.96,352.84c-13.18-6.04-30.97-4.3-44.53,1.93-14.54,5.69,7.2,3.54,10.05,6.19-12.65,26.74-90.57,71.23-121.04,46.65,13.93-7.04,34.09-20.94,35.03-36.21-.16-45.71-139.26-4.18-72.66,34.06,5.62,2.49,14.76,4.54,20.25,4.54,6.24-.02,6.48,10.6,17.77,11.42,3.79.57,4.31,1.02,6.06,5.27,5.08,12.28,21.06,31.07,32.83,38.6,56.54,40.92,101.79-47.86,100.04-102.29,6.42-.16,18.34-.44,23.47-.18,12.3,1.36-.51-6.25-7.27-9.98ZM285.65,378.04c-8.51,3.54-33.38,1.55-19.17-8.23,7.75-4.21,23.86-8.87,32.96-5.86,3.94,2.5-4.76,11.39-13.79,14.09ZM402.45,427.4c-8,15.39-17.54,26.14-27.51,31.01-11.41,6.94-32.95,2.13-38.26-7.47.77-2.15,11.77-14.45,17.29-19.33,20.98-18,38.45-28.47,52.82-28,1.9.28,2.64,1.73,2.64,3.85,0,5.15-4.35,14.23-6.98,19.94ZM450.96,352.84c-13.18-6.04-30.97-4.3-44.53,1.93-14.54,5.69,7.2,3.54,10.05,6.19-12.65,26.74-90.57,71.23-121.04,46.65,13.93-7.04,34.09-20.94,35.03-36.21-.16-45.71-139.26-4.18-72.66,34.06,5.62,2.49,14.76,4.54,20.25,4.54,6.24-.02,6.48,10.6,17.77,11.42,3.79.57,4.31,1.02,6.06,5.27,5.08,12.28,21.06,31.07,32.83,38.6,56.54,40.92,101.79-47.86,100.04-102.29,6.42-.16,18.34-.44,23.47-.18,12.3,1.36-.51-6.25-7.27-9.98ZM285.65,378.04c-8.51,3.54-33.38,1.55-19.17-8.23,7.75-4.21,23.86-8.87,32.96-5.86,3.94,2.5-4.76,11.39-13.79,14.09ZM402.45,427.4c-8,15.39-17.54,26.14-27.51,31.01-11.41,6.94-32.95,2.13-38.26-7.47.77-2.15,11.77-14.45,17.29-19.33,20.98-18,38.45-28.47,52.82-28,1.9.28,2.64,1.73,2.64,3.85,0,5.15-4.35,14.23-6.98,19.94ZM735.99,634.9v.05s.02-.02.03-.04c-.01,0-.02,0-.03-.01ZM735.99,634.9v.05s.02-.02.03-.04c-.01,0-.02,0-.03-.01ZM450.96,352.84c-13.18-6.04-30.97-4.3-44.53,1.93-14.54,5.69,7.2,3.54,10.05,6.19-12.65,26.74-90.57,71.23-121.04,46.65,13.93-7.04,34.09-20.94,35.03-36.21-.16-45.71-139.26-4.18-72.66,34.06,5.62,2.49,14.76,4.54,20.25,4.54,6.24-.02,6.48,10.6,17.77,11.42,3.79.57,4.31,1.02,6.06,5.27,5.08,12.28,21.06,31.07,32.83,38.6,56.54,40.92,101.79-47.86,100.04-102.29,6.42-.16,18.34-.44,23.47-.18,12.3,1.36-.51-6.25-7.27-9.98ZM285.65,378.04c-8.51,3.54-33.38,1.55-19.17-8.23,7.75-4.21,23.86-8.87,32.96-5.86,3.94,2.5-4.76,11.39-13.79,14.09ZM402.45,427.4c-8,15.39-17.54,26.14-27.51,31.01-11.41,6.94-32.95,2.13-38.26-7.47.77-2.15,11.77-14.45,17.29-19.33,20.98-18,38.45-28.47,52.82-28,1.9.28,2.64,1.73,2.64,3.85,0,5.15-4.35,14.23-6.98,19.94ZM450.96,352.84c-13.18-6.04-30.97-4.3-44.53,1.93-14.54,5.69,7.2,3.54,10.05,6.19-12.65,26.74-90.57,71.23-121.04,46.65,13.93-7.04,34.09-20.94,35.03-36.21-.16-45.71-139.26-4.18-72.66,34.06,5.62,2.49,14.76,4.54,20.25,4.54,6.24-.02,6.48,10.6,17.77,11.42,3.79.57,4.31,1.02,6.06,5.27,5.08,12.28,21.06,31.07,32.83,38.6,56.54,40.92,101.79-47.86,100.04-102.29,6.42-.16,18.34-.44,23.47-.18,12.3,1.36-.51-6.25-7.27-9.98ZM285.65,378.04c-8.51,3.54-33.38,1.55-19.17-8.23,7.75-4.21,23.86-8.87,32.96-5.86,3.94,2.5-4.76,11.39-13.79,14.09ZM402.45,427.4c-8,15.39-17.54,26.14-27.51,31.01-11.41,6.94-32.95,2.13-38.26-7.47.77-2.15,11.77-14.45,17.29-19.33,20.98-18,38.45-28.47,52.82-28,1.9.28,2.64,1.73,2.64,3.85,0,5.15-4.35,14.23-6.98,19.94ZM735.99,634.9v.05s.02-.02.03-.04c-.01,0-.02,0-.03-.01ZM735.99,634.9v.05s.02-.02.03-.04c-.01,0-.02,0-.03-.01ZM450.96,352.84c-13.18-6.04-30.97-4.3-44.53,1.93-14.54,5.69,7.2,3.54,10.05,6.19-12.65,26.74-90.57,71.23-121.04,46.65,13.93-7.04,34.09-20.94,35.03-36.21-.16-45.71-139.26-4.18-72.66,34.06,5.62,2.49,14.76,4.54,20.25,4.54,6.24-.02,6.48,10.6,17.77,11.42,3.79.57,4.31,1.02,6.06,5.27,5.08,12.28,21.06,31.07,32.83,38.6,56.54,40.92,101.79-47.86,100.04-102.29,6.42-.16,18.34-.44,23.47-.18,12.3,1.36-.51-6.25-7.27-9.98ZM285.65,378.04c-8.51,3.54-33.38,1.55-19.17-8.23,7.75-4.21,23.86-8.87,32.96-5.86,3.94,2.5-4.76,11.39-13.79,14.09ZM402.45,427.4c-8,15.39-17.54,26.14-27.51,31.01-11.41,6.94-32.95,2.13-38.26-7.47.77-2.15,11.77-14.45,17.29-19.33,20.98-18,38.45-28.47,52.82-28,1.9.28,2.64,1.73,2.64,3.85,0,5.15-4.35,14.23-6.98,19.94ZM450.96,352.84c-13.18-6.04-30.97-4.3-44.53,1.93-14.54,5.69,7.2,3.54,10.05,6.19-12.65,26.74-90.57,71.23-121.04,46.65,13.93-7.04,34.09-20.94,35.03-36.21-.16-45.71-139.26-4.18-72.66,34.06,5.62,2.49,14.76,4.54,20.25,4.54,6.24-.02,6.48,10.6,17.77,11.42,3.79.57,4.31,1.02,6.06,5.27,5.08,12.28,21.06,31.07,32.83,38.6,56.54,40.92,101.79-47.86,100.04-102.29,6.42-.16,18.34-.44,23.47-.18,12.3,1.36-.51-6.25-7.27-9.98ZM285.65,378.04c-8.51,3.54-33.38,1.55-19.17-8.23,7.75-4.21,23.86-8.87,32.96-5.86,3.94,2.5-4.76,11.39-13.79,14.09ZM402.45,427.4c-8,15.39-17.54,26.14-27.51,31.01-11.41,6.94-32.95,2.13-38.26-7.47.77-2.15,11.77-14.45,17.29-19.33,20.98-18,38.45-28.47,52.82-28,1.9.28,2.64,1.73,2.64,3.85,0,5.15-4.35,14.23-6.98,19.94ZM735.99,634.9v.05s.02-.02.03-.04c-.01,0-.02,0-.03-.01ZM735.99,634.9v.05s.02-.02.03-.04c-.01,0-.02,0-.03-.01ZM450.96,352.84c-13.18-6.04-30.97-4.3-44.53,1.93-14.54,5.69,7.2,3.54,10.05,6.19-12.65,26.74-90.57,71.23-121.04,46.65,13.93-7.04,34.09-20.94,35.03-36.21-.16-45.71-139.26-4.18-72.66,34.06,5.62,2.49,14.76,4.54,20.25,4.54,6.24-.02,6.48,10.6,17.77,11.42,3.79.57,4.31,1.02,6.06,5.27,5.08,12.28,21.06,31.07,32.83,38.6,56.54,40.92,101.79-47.86,100.04-102.29,6.42-.16,18.34-.44,23.47-.18,12.3,1.36-.51-6.25-7.27-9.98ZM285.65,378.04c-8.51,3.54-33.38,1.55-19.17-8.23,7.75-4.21,23.86-8.87,32.96-5.86,3.94,2.5-4.76,11.39-13.79,14.09ZM402.45,427.4c-8,15.39-17.54,26.14-27.51,31.01-11.41,6.94-32.95,2.13-38.26-7.47.77-2.15,11.77-14.45,17.29-19.33,20.98-18,38.45-28.47,52.82-28,1.9.28,2.64,1.73,2.64,3.85,0,5.15-4.35,14.23-6.98,19.94ZM735.99,634.9v.05s.02-.02.03-.04c-.01,0-.02,0-.03-.01ZM735.99,634.9v.05s.02-.02.03-.04c-.01,0-.02,0-.03-.01ZM735.99,634.9v.05s.02-.02.03-.04c-.01,0-.02,0-.03-.01ZM735.99,634.9v.05s.02-.02.03-.04c-.01,0-.02,0-.03-.01ZM735.99,634.9v.05s.02-.02.03-.04c-.01,0-.02,0-.03-.01ZM735.99,634.9v.05s.02-.02.03-.04c-.01,0-.02,0-.03-.01ZM735.99,634.9v.05s.02-.02.03-.04c-.01,0-.02,0-.03-.01ZM735.99,634.9v.05s.02-.02.03-.04c-.01,0-.02,0-.03-.01ZM735.99,634.9v.05s.02-.02.03-.04c-.01,0-.02,0-.03-.01ZM735.99,634.9v.05s.02-.02.03-.04c-.01,0-.02,0-.03-.01ZM735.99,634.9v.05s.02-.02.03-.04c-.01,0-.02,0-.03-.01ZM735.99,634.9v.05s.02-.02.03-.04c-.01,0-.02,0-.03-.01ZM735.99,634.9v.05s.02-.02.03-.04c-.01,0-.02,0-.03-.01ZM735.99,634.9v.05s.02-.02.03-.04c-.01,0-.02,0-.03-.01Z"/></svg>